<svg width="440" height="276" viewBox="0 0 440 276" fill="none" xmlns="http://www.w3.org/2000/svg">
<rect x="31" y="4" width="408.677" height="271.04" rx="12.9841" fill="white"/>
<rect x="31.5" y="4.5" width="407.677" height="270.04" rx="12.4841" stroke="url(#paint0_linear_3074_1159)" stroke-opacity="0.5"/>
<path d="M63.4149 50.2604C62.4086 50.2604 61.4997 50.0884 60.6882 49.7443C59.8832 49.3937 59.2178 48.8971 58.6919 48.2544C58.1725 47.6052 57.835 46.8358 57.6791 45.9464L59.802 45.6251C60.0163 46.482 60.4642 47.1507 61.1459 47.6311C61.8276 48.105 62.6228 48.342 63.5317 48.342C64.0965 48.342 64.6159 48.2544 65.0898 48.0791C65.5638 47.8973 65.9435 47.6409 66.2292 47.3098C66.5213 46.9722 66.6674 46.5697 66.6674 46.1022C66.6674 45.849 66.622 45.6251 66.5311 45.4303C66.4467 45.2355 66.3266 45.0668 66.1708 44.9239C66.0214 44.7746 65.8364 44.648 65.6157 44.5441C65.4015 44.4338 65.1645 44.3396 64.9048 44.2617L61.3115 43.2003C60.9609 43.0964 60.6038 42.9633 60.2403 42.801C59.8767 42.6322 59.5424 42.4147 59.2372 42.1486C58.9386 41.8759 58.6952 41.5416 58.5069 41.1455C58.3186 40.743 58.2245 40.2561 58.2245 39.6848C58.2245 38.8214 58.4452 38.091 58.8867 37.4938C59.3346 36.89 59.9384 36.4356 60.698 36.1304C61.4575 35.8188 62.308 35.663 63.2493 35.663C64.1972 35.676 65.0444 35.8448 65.791 36.1694C66.5441 36.494 67.1673 36.9614 67.6607 37.5717C68.1606 38.1754 68.5047 38.909 68.6929 39.7725L66.5116 40.1425C66.4142 39.6167 66.2065 39.1655 65.8884 38.7889C65.5702 38.4059 65.1807 38.1138 64.7198 37.9125C64.2588 37.7048 63.759 37.5976 63.2201 37.5911C62.7008 37.5782 62.2236 37.6561 61.7886 37.8249C61.3601 37.9936 61.0161 38.2306 60.7564 38.5357C60.5032 38.8409 60.3766 39.1914 60.3766 39.5875C60.3766 39.977 60.4902 40.2918 60.7174 40.532C60.9447 40.7723 61.2238 40.9638 61.5549 41.1066C61.8925 41.2429 62.2268 41.3565 62.5579 41.4474L65.1483 42.1778C65.4729 42.2687 65.8397 42.392 66.2487 42.5478C66.6642 42.6972 67.0634 42.9081 67.4465 43.1808C67.836 43.4535 68.1573 43.817 68.4105 44.2715C68.6637 44.7194 68.7903 45.2842 68.7903 45.9659C68.7903 46.6735 68.6475 47.2968 68.3618 47.8356C68.0762 48.368 67.6834 48.8159 67.1835 49.1795C66.6901 49.5365 66.1188 49.806 65.4696 49.9877C64.8204 50.1695 64.1355 50.2604 63.4149 50.2604ZM75.8028 50.2604C74.7965 50.2604 73.9526 50.017 73.2709 49.53C72.5892 49.0367 72.0731 48.3712 71.7225 47.5337C71.372 46.6963 71.1967 45.7517 71.1967 44.7C71.1967 43.6482 71.3687 42.7036 71.7128 41.8662C72.0634 41.0287 72.5762 40.3697 73.2514 39.8893C73.9331 39.4024 74.7706 39.159 75.7639 39.159C76.7506 39.159 77.6011 39.4024 78.3152 39.8893C79.0359 40.3697 79.5909 41.0287 79.9804 41.8662C80.37 42.6972 80.5647 43.6417 80.5647 44.7C80.5647 45.7517 80.37 46.6995 79.9804 47.5435C79.5974 48.381 79.0488 49.0431 78.3347 49.53C77.6271 50.017 76.7831 50.2604 75.8028 50.2604ZM70.8559 54.6425V39.4511H72.6671V47.0176H72.9009V54.6425H70.8559ZM75.5204 48.4199C76.1696 48.4199 76.7052 48.2544 77.1272 47.9233C77.5557 47.5922 77.8738 47.1475 78.0815 46.5891C78.2958 46.0243 78.4029 45.3946 78.4029 44.7C78.4029 44.0118 78.2958 43.3886 78.0815 42.8302C77.8738 42.2719 77.5524 41.8272 77.1174 41.4961C76.6825 41.165 76.1274 40.9995 75.4522 40.9995C74.816 40.9995 74.2902 41.1553 73.8747 41.4669C73.4657 41.7785 73.1605 42.2135 72.9593 42.7718C72.7645 43.3301 72.6671 43.9728 72.6671 44.7C72.6671 45.4271 72.7645 46.0698 72.9593 46.6281C73.154 47.1864 73.4624 47.6246 73.8844 47.9427C74.3064 48.2608 74.8517 48.4199 75.5204 48.4199ZM87.3794 50.2604C86.3342 50.2604 85.4156 50.0332 84.6235 49.5787C83.838 49.1178 83.2245 48.4783 82.783 47.6603C82.3481 46.8358 82.1306 45.8815 82.1306 44.7973C82.1306 43.6482 82.3448 42.6517 82.7733 41.8077C83.2083 40.9638 83.812 40.3113 84.5846 39.8504C85.3571 39.3894 86.2563 39.159 87.282 39.159C88.3532 39.159 89.2654 39.4089 90.0184 39.9088C90.7715 40.4022 91.3331 41.1066 91.7031 42.022C92.0797 42.9374 92.229 44.0248 92.1511 45.2842H90.1158V44.5441C90.1028 43.3236 89.8691 42.4212 89.4147 41.837C88.9667 41.2527 88.2818 40.9605 87.3599 40.9605C86.3407 40.9605 85.5746 41.2819 85.0618 41.9246C84.5489 42.5673 84.2924 43.4957 84.2924 44.7097C84.2924 45.8653 84.5489 46.7612 85.0618 47.3974C85.5746 48.0271 86.3147 48.342 87.282 48.342C87.9183 48.342 88.4668 48.1992 88.9278 47.9135C89.3952 47.6214 89.7588 47.2059 90.0184 46.667L92.0148 47.3C91.6058 48.2414 90.9858 48.9717 90.1548 49.4911C89.3238 50.004 88.3987 50.2604 87.3794 50.2604ZM83.6303 45.2842V43.6969H91.1383V45.2842H83.6303ZM101.432 49.9683V44.7973C101.432 44.3883 101.396 43.9696 101.325 43.5411C101.26 43.1062 101.13 42.7036 100.935 42.3336C100.747 41.9635 100.478 41.6649 100.127 41.4377C99.7831 41.2105 99.3319 41.0969 98.7736 41.0969C98.41 41.0969 98.066 41.1585 97.7414 41.2819C97.4168 41.3987 97.1311 41.5903 96.8844 41.8564C96.6442 42.1226 96.4527 42.4732 96.3099 42.9081C96.1735 43.3431 96.1054 43.8722 96.1054 44.4955L94.8394 44.0183C94.8394 43.064 95.0179 42.2232 95.375 41.4961C95.7321 40.7625 96.2449 40.1912 96.9136 39.7822C97.5823 39.3732 98.3906 39.1687 99.3384 39.1687C100.066 39.1687 100.676 39.2856 101.169 39.5193C101.663 39.753 102.062 40.0614 102.367 40.4444C102.679 40.8209 102.916 41.2332 103.078 41.6811C103.24 42.1291 103.351 42.5673 103.409 42.9958C103.467 43.4243 103.497 43.8008 103.497 44.1254V49.9683H101.432ZM94.0409 49.9683V39.4511H95.8619V42.4894H96.1054V49.9683H94.0409ZM110.078 50.2604C109.097 50.2604 108.25 50.017 107.536 49.53C106.828 49.0431 106.28 48.381 105.89 47.5435C105.507 46.6995 105.316 45.7517 105.316 44.7C105.316 43.6417 105.51 42.6972 105.9 41.8662C106.289 41.0287 106.841 40.3697 107.555 39.8893C108.276 39.4024 109.13 39.159 110.117 39.159C111.11 39.159 111.944 39.4024 112.619 39.8893C113.301 40.3697 113.814 41.0287 114.158 41.8662C114.508 42.7036 114.684 43.6482 114.684 44.7C114.684 45.7517 114.508 46.6963 114.158 47.5337C113.807 48.3712 113.291 49.0367 112.609 49.53C111.928 50.017 111.084 50.2604 110.078 50.2604ZM110.36 48.4199C111.029 48.4199 111.574 48.2608 111.996 47.9427C112.418 47.6246 112.726 47.1864 112.921 46.6281C113.116 46.0698 113.213 45.4271 113.213 44.7C113.213 43.9728 113.113 43.3301 112.911 42.7718C112.717 42.2135 112.411 41.7785 111.996 41.4669C111.587 41.1553 111.064 40.9995 110.428 40.9995C109.753 40.9995 109.198 41.165 108.763 41.4961C108.328 41.8272 108.003 42.2719 107.789 42.8302C107.581 43.3886 107.477 44.0118 107.477 44.7C107.477 45.3946 107.581 46.0243 107.789 46.5891C108.003 47.1475 108.321 47.5922 108.743 47.9233C109.172 48.2544 109.711 48.4199 110.36 48.4199ZM113.213 49.9683V42.4018H112.98V35.9454H115.025V49.9683H113.213ZM117.944 37.7275V35.7506H119.979V37.7275H117.944ZM117.944 49.9683V39.4511H119.979V49.9683H117.944ZM130.285 49.9683V44.7973C130.285 44.3883 130.249 43.9696 130.178 43.5411C130.113 43.1062 129.983 42.7036 129.788 42.3336C129.6 41.9635 129.331 41.6649 128.98 41.4377C128.636 41.2105 128.185 41.0969 127.627 41.0969C127.263 41.0969 126.919 41.1585 126.594 41.2819C126.27 41.3987 125.984 41.5903 125.737 41.8564C125.497 42.1226 125.306 42.4732 125.163 42.9081C125.026 43.3431 124.958 43.8722 124.958 44.4955L123.692 44.0183C123.692 43.064 123.871 42.2232 124.228 41.4961C124.585 40.7625 125.098 40.1912 125.767 39.7822C126.435 39.3732 127.243 39.1687 128.191 39.1687C128.918 39.1687 129.529 39.2856 130.022 39.5193C130.515 39.753 130.915 40.0614 131.22 40.4444C131.531 40.8209 131.768 41.2332 131.931 41.6811C132.093 42.1291 132.203 42.5673 132.262 42.9958C132.32 43.4243 132.349 43.8008 132.349 44.1254V49.9683H130.285ZM122.894 49.9683V39.4511H124.715V42.4894H124.958V49.9683H122.894ZM139.219 54.9347C138.655 54.9347 138.106 54.847 137.574 54.6718C137.048 54.4965 136.567 54.2368 136.132 53.8927C135.697 53.5551 135.337 53.1364 135.052 52.6365L136.931 51.6822C137.158 52.1301 137.483 52.458 137.905 52.6657C138.327 52.8735 138.771 52.9773 139.239 52.9773C139.817 52.9773 140.31 52.8735 140.719 52.6657C141.128 52.4645 141.436 52.1593 141.644 51.7503C141.858 51.3413 141.962 50.835 141.956 50.2312V47.2903H142.199V39.4511H144.001V50.2507C144.001 50.5298 143.991 50.796 143.972 51.0492C143.952 51.3024 143.916 51.5556 143.864 51.8088C143.715 52.5164 143.43 53.1007 143.008 53.5616C142.592 54.0226 142.06 54.3666 141.41 54.5939C140.768 54.8211 140.037 54.9347 139.219 54.9347ZM139.064 50.2604C138.083 50.2604 137.236 50.017 136.522 49.53C135.814 49.0431 135.266 48.381 134.876 47.5435C134.493 46.6995 134.302 45.7517 134.302 44.7C134.302 43.6417 134.496 42.6972 134.886 41.8662C135.275 41.0287 135.827 40.3697 136.541 39.8893C137.262 39.4024 138.116 39.159 139.103 39.159C140.096 39.159 140.93 39.4024 141.605 39.8893C142.287 40.3697 142.8 41.0287 143.144 41.8662C143.494 42.7036 143.67 43.6482 143.67 44.7C143.67 45.7517 143.494 46.6963 143.144 47.5337C142.793 48.3712 142.277 49.0367 141.596 49.53C140.914 50.017 140.07 50.2604 139.064 50.2604ZM139.346 48.4199C140.015 48.4199 140.56 48.2608 140.982 47.9427C141.404 47.6246 141.712 47.1864 141.907 46.6281C142.102 46.0698 142.199 45.4271 142.199 44.7C142.199 43.9728 142.099 43.3301 141.897 42.7718C141.703 42.2135 141.398 41.7785 140.982 41.4669C140.573 41.1553 140.05 40.9995 139.414 40.9995C138.739 40.9995 138.184 41.165 137.749 41.4961C137.314 41.8272 136.989 42.2719 136.775 42.8302C136.567 43.3886 136.464 44.0118 136.464 44.7C136.464 45.3946 136.567 46.0243 136.775 46.5891C136.989 47.1475 137.308 47.5922 137.729 47.9233C138.158 48.2544 138.697 48.4199 139.346 48.4199Z" fill="#121417"/>
<g clip-path="url(#clip0_3074_1159)">
<path d="M59.4028 67.3293C59.4028 66.6836 59.6593 66.0644 60.1159 65.6078C60.5724 65.1513 61.1916 64.8948 61.8373 64.8948H71.5754C72.2211 64.8948 72.8403 65.1513 73.2969 65.6078C73.7535 66.0644 74.0099 66.6836 74.0099 67.3293V73.8214C74.0099 74.467 73.7535 75.0863 73.2969 75.5428C72.8403 75.9994 72.2211 76.2559 71.5754 76.2559H61.8373C61.1916 76.2559 60.5724 75.9994 60.1159 75.5428C59.6593 75.0863 59.4028 74.467 59.4028 73.8214V67.3293Z" stroke="#5A6475" stroke-width="1.21726" stroke-linecap="round" stroke-linejoin="round"/>
<path d="M59.4028 68.9523H74.0099" stroke="#5A6475" stroke-width="1.21726" stroke-linecap="round" stroke-linejoin="round"/>
<path d="M62.6488 73.0098H62.6577" stroke="#5A6475" stroke-width="1.21726" stroke-linecap="round" stroke-linejoin="round"/>
<path d="M65.8949 73.0098H67.5179" stroke="#5A6475" stroke-width="1.21726" stroke-linecap="round" stroke-linejoin="round"/>
</g>
<path d="M85.3618 65.5032C85.7829 65.5063 86.1979 65.5831 86.6068 65.7338C87.0156 65.8844 87.3844 66.1303 87.7134 66.4715C88.0453 66.8127 88.3097 67.2738 88.5064 67.8547C88.7062 68.4326 88.8077 69.1519 88.8107 70.0126C88.8107 70.8395 88.7277 71.5757 88.5617 72.2212C88.3958 72.8637 88.1575 73.4062 87.8471 73.8488C87.5397 74.2915 87.1662 74.6281 86.7266 74.8586C86.2871 75.0891 85.7922 75.2044 85.2419 75.2044C84.6794 75.2044 84.1799 75.0938 83.7434 74.8724C83.3069 74.6511 82.9519 74.3453 82.6783 73.9549C82.4047 73.5614 82.2341 73.1096 82.1665 72.5993H83.5728C83.665 73.005 83.8525 73.334 84.1353 73.586C84.4212 73.835 84.7901 73.9595 85.2419 73.9595C85.9336 73.9595 86.473 73.6583 86.8603 73.0558C87.2477 72.4502 87.4429 71.6049 87.4459 70.5198H87.3722C87.2123 70.7842 87.0125 71.0116 86.7727 71.2022C86.5361 71.3928 86.2702 71.5403 85.9751 71.6449C85.68 71.7494 85.3649 71.8016 85.0298 71.8016C84.4858 71.8016 83.9909 71.6679 83.5452 71.4005C83.0994 71.133 82.7444 70.7657 82.48 70.2985C82.2157 69.8313 82.0835 69.2979 82.0835 68.6985C82.0835 68.1022 82.2188 67.5612 82.4893 67.0755C82.7628 66.5898 83.144 66.2056 83.6328 65.9228C84.1246 65.6369 84.7009 65.4971 85.3618 65.5032ZM85.3664 66.702C85.0068 66.702 84.6825 66.7912 84.3935 66.9695C84.1077 67.1447 83.8817 67.3829 83.7158 67.6841C83.5498 67.9823 83.4668 68.3143 83.4668 68.6801C83.4668 69.0459 83.5467 69.3779 83.7065 69.676C83.8694 69.9711 84.0908 70.2063 84.3705 70.3815C84.6533 70.5536 84.9761 70.6397 85.3388 70.6397C85.6093 70.6397 85.8613 70.5874 86.0949 70.4829C86.3286 70.3784 86.533 70.2339 86.7082 70.0495C86.8834 69.862 87.0202 69.6499 87.1186 69.4132C87.2169 69.1765 87.2661 68.9275 87.2661 68.6662C87.2661 68.3189 87.1831 67.9961 87.0171 67.698C86.8542 67.3998 86.6298 67.16 86.3439 66.9787C86.0581 66.7942 85.7322 66.702 85.3664 66.702ZM93.7639 75.2044C93.1307 75.2044 92.5651 75.0953 92.0671 74.8771C91.5722 74.6588 91.1803 74.356 90.8914 73.9687C90.6055 73.5783 90.4518 73.1265 90.4303 72.6131H91.8781C91.8965 72.8929 91.9903 73.1357 92.1594 73.3416C92.3315 73.5445 92.5559 73.7013 92.8325 73.8119C93.1092 73.9226 93.4166 73.9779 93.7547 73.9779C94.1266 73.9779 94.4556 73.9134 94.7414 73.7843C95.0304 73.6552 95.2563 73.4754 95.4192 73.2448C95.5821 73.0112 95.6636 72.7422 95.6636 72.4379C95.6636 72.1213 95.5821 71.8431 95.4192 71.6034C95.2594 71.3605 95.0242 71.1699 94.7138 71.0316C94.4064 70.8933 94.0344 70.8241 93.5979 70.8241H92.8003V69.6622H93.5979C93.9484 69.6622 94.2558 69.5992 94.5201 69.4731C94.7875 69.3471 94.9966 69.1719 95.1472 68.9475C95.2978 68.72 95.3731 68.4542 95.3731 68.1498C95.3731 67.8578 95.307 67.6042 95.1748 67.389C95.0457 67.1708 94.8613 67.0002 94.6215 66.8772C94.3849 66.7543 94.1051 66.6928 93.7824 66.6928C93.475 66.6928 93.1876 66.7497 92.9201 66.8634C92.6558 66.9741 92.4406 67.1339 92.2746 67.3429C92.1086 67.5489 92.0195 67.7963 92.0072 68.0853H90.6286C90.6439 67.575 90.7945 67.1262 91.0804 66.7389C91.3694 66.3516 91.7505 66.0488 92.2239 65.8306C92.6973 65.6123 93.2229 65.5032 93.8008 65.5032C94.4064 65.5032 94.9289 65.6216 95.3685 65.8582C95.8111 66.0919 96.1523 66.4039 96.3921 66.7942C96.6349 67.1846 96.7548 67.6119 96.7518 68.0761C96.7548 68.6048 96.6073 69.0536 96.3091 69.4224C96.014 69.7913 95.6206 70.0387 95.1287 70.1648V70.2385C95.7558 70.3338 96.2415 70.5828 96.5858 70.9855C96.9331 71.3882 97.1053 71.8877 97.1022 72.484C97.1053 73.0035 96.9608 73.4692 96.6688 73.8811C96.3798 74.293 95.9848 74.6173 95.4838 74.854C94.9827 75.0876 94.4094 75.2044 93.7639 75.2044ZM98.6468 73.231V72.0783L102.727 65.6323H103.636V67.3291H103.059L100.141 71.9492V72.0229H105.734V73.231H98.6468ZM103.124 75.0753V72.8806L103.133 72.3549V65.6323H104.484V75.0753H103.124ZM110.481 65.5032C110.902 65.5063 111.317 65.5831 111.725 65.7338C112.134 65.8844 112.503 66.1303 112.832 66.4715C113.164 66.8127 113.428 67.2738 113.625 67.8547C113.825 68.4326 113.926 69.1519 113.929 70.0126C113.929 70.8395 113.846 71.5757 113.68 72.2212C113.514 72.8637 113.276 73.4062 112.966 73.8488C112.658 74.2915 112.285 74.6281 111.845 74.8586C111.406 75.0891 110.911 75.2044 110.361 75.2044C109.798 75.2044 109.299 75.0938 108.862 74.8724C108.426 74.6511 108.071 74.3453 107.797 73.9549C107.523 73.5614 107.353 73.1096 107.285 72.5993H108.692C108.784 73.005 108.971 73.334 109.254 73.586C109.54 73.835 109.909 73.9595 110.361 73.9595C111.052 73.9595 111.592 73.6583 111.979 73.0558C112.366 72.4502 112.562 71.6049 112.565 70.5198H112.491C112.331 70.7842 112.131 71.0116 111.891 71.2022C111.655 71.3928 111.389 71.5403 111.094 71.6449C110.799 71.7494 110.484 71.8016 110.149 71.8016C109.604 71.8016 109.11 71.6679 108.664 71.4005C108.218 71.133 107.863 70.7657 107.599 70.2985C107.334 69.8313 107.202 69.2979 107.202 68.6985C107.202 68.1022 107.337 67.5612 107.608 67.0755C107.882 66.5898 108.263 66.2056 108.751 65.9228C109.243 65.6369 109.82 65.4971 110.481 65.5032ZM110.485 66.702C110.125 66.702 109.801 66.7912 109.512 66.9695C109.226 67.1447 109 67.3829 108.834 67.6841C108.668 67.9823 108.585 68.3143 108.585 68.6801C108.585 69.0459 108.665 69.3779 108.825 69.676C108.988 69.9711 109.209 70.2063 109.489 70.3815C109.772 70.5536 110.095 70.6397 110.457 70.6397C110.728 70.6397 110.98 70.5874 111.214 70.4829C111.447 70.3784 111.652 70.2339 111.827 70.0495C112.002 69.862 112.139 69.6499 112.237 69.4132C112.336 69.1765 112.385 68.9275 112.385 68.6662C112.385 68.3189 112.302 67.9961 112.136 67.698C111.973 67.3998 111.749 67.16 111.463 66.9787C111.177 66.7942 110.851 66.702 110.485 66.702ZM125.108 67.9931L122.54 75.0753H121.065L118.492 67.9931H119.972L121.766 73.4431H121.839L123.628 67.9931H125.108ZM126.404 75.0753V67.9931H127.783V75.0753H126.404ZM127.1 66.9003C126.861 66.9003 126.655 66.8204 126.482 66.6605C126.313 66.4976 126.229 66.304 126.229 66.0796C126.229 65.8521 126.313 65.6584 126.482 65.4986C126.655 65.3357 126.861 65.2542 127.1 65.2542C127.34 65.2542 127.544 65.3357 127.714 65.4986C127.886 65.6584 127.972 65.8521 127.972 66.0796C127.972 66.304 127.886 66.4976 127.714 66.6605C127.544 66.8204 127.34 66.9003 127.1 66.9003ZM134.945 69.7221L133.695 69.9435C133.643 69.7836 133.56 69.6315 133.446 69.487C133.335 69.3425 133.185 69.2242 132.994 69.1319C132.804 69.0397 132.565 68.9936 132.279 68.9936C131.889 68.9936 131.563 69.0812 131.302 69.2564C131.041 69.4286 130.91 69.6514 130.91 69.925C130.91 70.1617 130.998 70.3523 131.173 70.4968C131.348 70.6412 131.631 70.7596 132.021 70.8518L133.146 71.11C133.798 71.2606 134.284 71.4927 134.603 71.8062C134.923 72.1198 135.083 72.5271 135.083 73.0281C135.083 73.4523 134.96 73.8304 134.714 74.1624C134.471 74.4913 134.131 74.7495 133.695 74.937C133.262 75.1245 132.759 75.2183 132.187 75.2183C131.394 75.2183 130.747 75.0492 130.246 74.7111C129.745 74.3699 129.438 73.8857 129.324 73.2586L130.656 73.0558C130.739 73.4031 130.91 73.6659 131.168 73.8442C131.426 74.0194 131.763 74.107 132.178 74.107C132.63 74.107 132.991 74.0133 133.262 73.8258C133.532 73.6352 133.667 73.4031 133.667 73.1295C133.667 72.9082 133.584 72.7223 133.418 72.5716C133.255 72.421 133.005 72.3073 132.667 72.2304L131.468 71.9676C130.807 71.817 130.318 71.5772 130.002 71.2483C129.688 70.9194 129.531 70.5029 129.531 69.9988C129.531 69.5807 129.648 69.2149 129.882 68.9014C130.115 68.5879 130.438 68.3435 130.85 68.1683C131.262 67.99 131.734 67.9008 132.266 67.9008C133.031 67.9008 133.633 68.0668 134.073 68.3988C134.513 68.7277 134.803 69.1688 134.945 69.7221ZM138.66 75.2321C138.211 75.2321 137.805 75.1491 137.442 74.9831C137.08 74.814 136.792 74.5697 136.58 74.25C136.371 73.9303 136.267 73.5384 136.267 73.0742C136.267 72.6746 136.344 72.3457 136.497 72.0875C136.651 71.8293 136.858 71.6249 137.12 71.4743C137.381 71.3236 137.673 71.2099 137.996 71.133C138.318 71.0562 138.647 70.9978 138.982 70.9578C139.407 70.9087 139.751 70.8687 140.015 70.838C140.28 70.8041 140.472 70.7503 140.592 70.6766C140.712 70.6028 140.771 70.4829 140.771 70.3169V70.2847C140.771 69.882 140.658 69.57 140.43 69.3487C140.206 69.1273 139.871 69.0167 139.425 69.0167C138.961 69.0167 138.595 69.1196 138.328 69.3256C138.063 69.5285 137.88 69.7544 137.779 70.0034L136.483 69.7083C136.637 69.278 136.861 68.9306 137.157 68.6662C137.455 68.3988 137.797 68.2052 138.185 68.0853C138.572 67.9623 138.979 67.9008 139.407 67.9008C139.689 67.9008 139.989 67.9347 140.306 68.0023C140.625 68.0668 140.924 68.1867 141.2 68.3619C141.48 68.5371 141.709 68.7877 141.887 69.1135C142.066 69.4363 142.155 69.8558 142.155 70.3723V75.0753H140.808V74.107H140.753C140.664 74.2853 140.53 74.4605 140.352 74.6327C140.174 74.8048 139.945 74.9478 139.665 75.0615C139.385 75.1752 139.05 75.2321 138.66 75.2321ZM138.959 74.1255C139.341 74.1255 139.666 74.0502 139.937 73.8996C140.21 73.7489 140.418 73.5522 140.559 73.3094C140.704 73.0635 140.776 72.8006 140.776 72.5209V71.608C140.727 71.6571 140.632 71.7033 140.49 71.7463C140.352 71.7863 140.194 71.8216 140.015 71.8523C139.837 71.88 139.663 71.9061 139.494 71.9307C139.325 71.9522 139.184 71.9707 139.07 71.9861C138.803 72.0199 138.558 72.0767 138.337 72.1567C138.119 72.2366 137.943 72.3518 137.811 72.5025C137.682 72.65 137.618 72.8467 137.618 73.0927C137.618 73.4339 137.744 73.6921 137.996 73.8673C138.248 74.0394 138.569 74.1255 138.959 74.1255ZM150.41 75.2183C149.725 75.2183 149.135 75.063 148.64 74.7526C148.148 74.439 147.77 74.0071 147.506 73.4569C147.241 72.9067 147.109 72.2765 147.109 71.5665C147.109 70.8472 147.244 70.2124 147.515 69.6622C147.785 69.1089 148.166 68.677 148.658 68.3665C149.15 68.0561 149.73 67.9008 150.397 67.9008C150.935 67.9008 151.414 68.0008 151.835 68.2006C152.256 68.3973 152.596 68.6739 152.854 69.0305C153.115 69.3871 153.271 69.8036 153.32 70.28H151.978C151.904 69.9481 151.735 69.6622 151.471 69.4224C151.21 69.1827 150.859 69.0628 150.42 69.0628C150.035 69.0628 149.699 69.1642 149.41 69.3671C149.124 69.5669 148.901 69.8528 148.741 70.2247C148.581 70.5936 148.502 71.0301 148.502 71.5342C148.502 72.0506 148.58 72.4963 148.737 72.8713C148.893 73.2464 149.115 73.5368 149.401 73.7428C149.69 73.9487 150.029 74.0517 150.42 74.0517C150.681 74.0517 150.918 74.0041 151.13 73.9088C151.345 73.8104 151.525 73.6705 151.669 73.4892C151.817 73.3078 151.92 73.0896 151.978 72.8344H153.32C153.271 73.2925 153.122 73.7013 152.873 74.0609C152.624 74.4206 152.29 74.7034 151.872 74.9093C151.457 75.1153 150.97 75.2183 150.41 75.2183ZM156.855 75.2321C156.406 75.2321 156.001 75.1491 155.638 74.9831C155.275 74.814 154.988 74.5697 154.776 74.25C154.567 73.9303 154.462 73.5384 154.462 73.0742C154.462 72.6746 154.539 72.3457 154.693 72.0875C154.846 71.8293 155.054 71.6249 155.315 71.4743C155.576 71.3236 155.868 71.2099 156.191 71.133C156.514 71.0562 156.843 70.9978 157.178 70.9578C157.602 70.9087 157.946 70.8687 158.211 70.838C158.475 70.8041 158.667 70.7503 158.787 70.6766C158.907 70.6028 158.967 70.4829 158.967 70.3169V70.2847C158.967 69.882 158.853 69.57 158.626 69.3487C158.401 69.1273 158.066 69.0167 157.621 69.0167C157.156 69.0167 156.791 69.1196 156.523 69.3256C156.259 69.5285 156.076 69.7544 155.975 70.0034L154.679 69.7083C154.833 69.278 155.057 68.9306 155.352 68.6662C155.65 68.3988 155.993 68.2052 156.38 68.0853C156.768 67.9623 157.175 67.9008 157.602 67.9008C157.885 67.9008 158.185 67.9347 158.501 68.0023C158.821 68.0668 159.119 68.1867 159.396 68.3619C159.676 68.5371 159.905 68.7877 160.083 69.1135C160.261 69.4363 160.35 69.8558 160.35 70.3723V75.0753H159.004V74.107H158.949C158.859 74.2853 158.726 74.4605 158.547 74.6327C158.369 74.8048 158.14 74.9478 157.86 75.0615C157.581 75.1752 157.246 75.2321 156.855 75.2321ZM157.155 74.1255C157.536 74.1255 157.862 74.0502 158.132 73.8996C158.406 73.7489 158.613 73.5522 158.755 73.3094C158.899 73.0635 158.972 72.8006 158.972 72.5209V71.608C158.922 71.6571 158.827 71.7033 158.686 71.7463C158.547 71.7863 158.389 71.8216 158.211 71.8523C158.033 71.88 157.859 71.9061 157.69 71.9307C157.521 71.9522 157.379 71.9707 157.266 71.9861C156.998 72.0199 156.754 72.0767 156.532 72.1567C156.314 72.2366 156.139 72.3518 156.007 72.5025C155.878 72.65 155.813 72.8467 155.813 73.0927C155.813 73.4339 155.939 73.6921 156.191 73.8673C156.443 74.0394 156.765 74.1255 157.155 74.1255ZM162.186 75.0753V67.9931H163.519V69.1181H163.593C163.722 68.7369 163.949 68.4372 164.275 68.219C164.604 67.9977 164.976 67.887 165.391 67.887C165.477 67.887 165.579 67.8901 165.695 67.8962C165.815 67.9024 165.909 67.9101 165.977 67.9193V69.238C165.921 69.2226 165.823 69.2057 165.682 69.1873C165.54 69.1658 165.399 69.155 165.257 69.155C164.931 69.155 164.641 69.2242 164.386 69.3625C164.134 69.4977 163.934 69.6868 163.786 69.9296C163.639 70.1694 163.565 70.443 163.565 70.7503V75.0753H162.186ZM169.567 75.2136C168.996 75.2136 168.485 75.0676 168.037 74.7756C167.591 74.4805 167.24 74.0609 166.985 73.5169C166.733 72.9697 166.607 72.3134 166.607 71.548C166.607 70.7826 166.735 70.1279 166.99 69.5838C167.248 69.0397 167.602 68.6232 168.05 68.3343C168.499 68.0453 169.008 67.9008 169.577 67.9008C170.016 67.9008 170.37 67.9746 170.637 68.1222C170.908 68.2666 171.117 68.4357 171.264 68.6294C171.415 68.823 171.532 68.9936 171.615 69.1412H171.698V65.6323H173.076V75.0753H171.73V73.9733H171.615C171.532 74.1239 171.412 74.2961 171.255 74.4897C171.101 74.6834 170.889 74.8525 170.619 74.9969C170.348 75.1414 169.998 75.2136 169.567 75.2136ZM169.872 74.0379C170.268 74.0379 170.603 73.9334 170.877 73.7243C171.153 73.5122 171.362 73.2187 171.504 72.8437C171.648 72.4687 171.721 72.0322 171.721 71.5342C171.721 71.0424 171.65 70.612 171.508 70.2432C171.367 69.8743 171.16 69.5869 170.886 69.3809C170.612 69.175 170.274 69.072 169.872 69.072C169.457 69.072 169.111 69.1796 168.834 69.3948C168.558 69.6099 168.349 69.9035 168.207 70.2754C168.069 70.6474 168 71.067 168 71.5342C168 72.0076 168.07 72.4333 168.212 72.8114C168.353 73.1895 168.562 73.4892 168.839 73.7105C169.119 73.9288 169.463 74.0379 169.872 74.0379Z" fill="#5A6475"/>
<g clip-path="url(#clip1_3074_1159)">
<path d="M407.216 33.2144H410.462V36.4604" stroke="#2C3E50" stroke-width="1.21726" stroke-linecap="round" stroke-linejoin="round"/>
<path d="M405.593 38.0834L410.462 33.2144" stroke="#2C3E50" stroke-width="1.21726" stroke-linecap="round" stroke-linejoin="round"/>
<path d="M400.724 46.1984H397.478V42.9524" stroke="#2C3E50" stroke-width="1.21726" stroke-linecap="round" stroke-linejoin="round"/>
<path d="M397.478 46.1984L402.347 41.3293" stroke="#2C3E50" stroke-width="1.21726" stroke-linecap="round" stroke-linejoin="round"/>
<path d="M407.216 46.1984H410.462V42.9524" stroke="#2C3E50" stroke-width="1.21726" stroke-linecap="round" stroke-linejoin="round"/>
<path d="M405.593 41.3293L410.462 46.1984" stroke="#2C3E50" stroke-width="1.21726" stroke-linecap="round" stroke-linejoin="round"/>
<path d="M400.724 33.2144H397.478V36.4604" stroke="#2C3E50" stroke-width="1.21726" stroke-linecap="round" stroke-linejoin="round"/>
<path d="M397.478 33.2144L402.347 38.0834" stroke="#2C3E50" stroke-width="1.21726" stroke-linecap="round" stroke-linejoin="round"/>
</g>
<path d="M63.3143 139.905V119.731L58.9159 122.392V119.163L63.3143 116.533H66.2519V139.905H63.3143ZM71.7783 139.889L71.7945 137.292L82.1656 127.959C83.0312 127.18 83.6101 126.445 83.9022 125.752C84.2052 125.049 84.3567 124.329 84.3567 123.593C84.3567 122.695 84.1511 121.884 83.7399 121.159C83.3287 120.434 82.7661 119.861 82.052 119.439C81.3487 119.017 80.548 118.806 79.6499 118.806C78.7194 118.806 77.8916 119.027 77.1667 119.471C76.4417 119.904 75.8683 120.483 75.4463 121.208C75.0351 121.933 74.835 122.722 74.8458 123.577H71.8919C71.8919 122.106 72.2327 120.807 72.9144 119.682C73.5961 118.546 74.5212 117.659 75.6898 117.02C76.8691 116.371 78.2054 116.046 79.6986 116.046C81.1485 116.046 82.4469 116.382 83.5938 117.053C84.7408 117.713 85.6442 118.616 86.3043 119.763C86.9751 120.899 87.3105 122.187 87.3105 123.626C87.3105 124.643 87.1807 125.525 86.921 126.271C86.6722 127.018 86.2826 127.711 85.7525 128.349C85.2223 128.976 84.5568 129.647 83.7561 130.361L75.1379 138.103L74.7646 137.129H87.3105V139.889H71.7783ZM92.4271 139.905L100.834 119.309H90.2198V116.533H103.934V119.309L95.5433 139.905H92.4271ZM106.739 139.905V136.724H109.92V139.905H106.739ZM115.143 139.905V119.731L110.745 122.392V119.163L115.143 116.533H118.081V139.905H115.143ZM134.351 139.905V135.604H123.607V132.861L131.316 116.533H134.595L126.886 132.861H134.351V126.288H137.273V132.861H139.707V135.604H137.273V139.905H134.351Z" fill="#121417"/>
<path d="M158.005 122.462H159.434V128.673C159.434 129.333 159.279 129.919 158.968 130.429C158.658 130.937 158.221 131.336 157.659 131.628C157.096 131.917 156.437 132.062 155.681 132.062C154.928 132.062 154.27 131.917 153.707 131.628C153.145 131.336 152.708 130.937 152.398 130.429C152.088 129.919 151.932 129.333 151.932 128.673V122.462H153.357V128.557C153.357 128.985 153.451 129.364 153.638 129.696C153.829 130.028 154.098 130.289 154.445 130.48C154.793 130.668 155.204 130.761 155.681 130.761C156.16 130.761 156.574 130.668 156.921 130.48C157.272 130.289 157.539 130.028 157.724 129.696C157.911 129.364 158.005 128.985 158.005 128.557V122.462ZM166.656 124.942C166.607 124.506 166.404 124.168 166.047 123.928C165.691 123.685 165.242 123.564 164.701 123.564C164.314 123.564 163.978 123.625 163.696 123.748C163.413 123.868 163.193 124.034 163.036 124.246C162.883 124.455 162.806 124.693 162.806 124.961C162.806 125.185 162.858 125.379 162.963 125.542C163.07 125.705 163.21 125.842 163.382 125.952C163.557 126.06 163.745 126.15 163.945 126.224C164.144 126.295 164.337 126.353 164.521 126.399L165.443 126.639C165.744 126.713 166.053 126.813 166.37 126.939C166.687 127.065 166.98 127.231 167.251 127.437C167.521 127.643 167.739 127.898 167.905 128.202C168.074 128.507 168.159 128.871 168.159 129.295C168.159 129.83 168.021 130.305 167.744 130.72C167.47 131.135 167.072 131.462 166.55 131.702C166.03 131.942 165.402 132.062 164.664 132.062C163.957 132.062 163.345 131.949 162.829 131.725C162.312 131.501 161.908 131.182 161.616 130.771C161.324 130.356 161.163 129.864 161.132 129.295H162.561C162.589 129.636 162.7 129.921 162.893 130.148C163.09 130.372 163.341 130.54 163.645 130.651C163.952 130.758 164.289 130.812 164.655 130.812C165.057 130.812 165.416 130.749 165.729 130.623C166.046 130.494 166.295 130.316 166.476 130.088C166.657 129.858 166.748 129.589 166.748 129.281C166.748 129.001 166.668 128.772 166.508 128.594C166.352 128.416 166.138 128.268 165.867 128.152C165.6 128.035 165.297 127.932 164.959 127.843L163.843 127.538C163.087 127.332 162.488 127.03 162.045 126.63C161.605 126.23 161.386 125.702 161.386 125.044C161.386 124.5 161.533 124.025 161.828 123.619C162.123 123.213 162.523 122.898 163.027 122.674C163.531 122.446 164.1 122.333 164.733 122.333C165.373 122.333 165.937 122.445 166.425 122.669C166.917 122.894 167.304 123.203 167.587 123.596C167.87 123.986 168.018 124.435 168.03 124.942H166.656ZM172.919 131.905H169.862V122.462H173.015C173.941 122.462 174.735 122.651 175.399 123.029C176.063 123.404 176.572 123.943 176.925 124.647C177.282 125.348 177.46 126.189 177.46 127.169C177.46 128.153 177.28 128.998 176.921 129.705C176.564 130.412 176.048 130.956 175.371 131.338C174.695 131.716 173.878 131.905 172.919 131.905ZM171.286 130.66H172.84C173.559 130.66 174.157 130.525 174.634 130.254C175.11 129.981 175.467 129.586 175.703 129.069C175.94 128.55 176.059 127.916 176.059 127.169C176.059 126.429 175.94 125.8 175.703 125.284C175.47 124.767 175.121 124.375 174.657 124.108C174.193 123.84 173.616 123.707 172.928 123.707H171.286V130.66Z" fill="#121417"/>
<path d="M63.9537 162.561L61.3854 169.643H59.91L57.3371 162.561H58.8172L60.6108 168.011H60.6846L62.4736 162.561H63.9537ZM70.5564 164.29L69.3069 164.511C69.2546 164.351 69.1716 164.199 69.0579 164.055C68.9472 163.91 68.7966 163.792 68.606 163.7C68.4154 163.607 68.1772 163.561 67.8913 163.561C67.501 163.561 67.1751 163.649 66.9138 163.824C66.6526 163.996 66.5219 164.219 66.5219 164.493C66.5219 164.729 66.6095 164.92 66.7847 165.064C66.96 165.209 67.2428 165.327 67.6331 165.419L68.7582 165.678C69.4098 165.828 69.8955 166.06 70.2152 166.374C70.5349 166.687 70.6947 167.095 70.6947 167.596C70.6947 168.02 70.5718 168.398 70.3259 168.73C70.083 169.059 69.7434 169.317 69.3069 169.505C68.8735 169.692 68.3709 169.786 67.7991 169.786C67.0061 169.786 66.359 169.617 65.858 169.279C65.3569 168.937 65.0495 168.453 64.9358 167.826L66.2683 167.623C66.3513 167.971 66.5219 168.234 66.7801 168.412C67.0383 168.587 67.3749 168.675 67.7899 168.675C68.2418 168.675 68.6029 168.581 68.8735 168.393C69.144 168.203 69.2792 167.971 69.2792 167.697C69.2792 167.476 69.1962 167.29 69.0302 167.139C68.8673 166.989 68.6168 166.875 68.2787 166.798L67.0798 166.535C66.4189 166.385 65.9302 166.145 65.6136 165.816C65.3001 165.487 65.1433 165.07 65.1433 164.566C65.1433 164.148 65.2601 163.783 65.4937 163.469C65.7273 163.155 66.0501 162.911 66.462 162.736C66.8739 162.558 67.3457 162.468 67.8775 162.468C68.6429 162.468 69.2454 162.634 69.685 162.966C70.1245 163.295 70.415 163.736 70.5564 164.29ZM77.0254 160.2V169.643H75.6468V160.2H77.0254ZM80.9412 169.8C80.4924 169.8 80.0866 169.717 79.7239 169.551C79.3612 169.382 79.0738 169.137 78.8617 168.818C78.6527 168.498 78.5481 168.106 78.5481 167.642C78.5481 167.242 78.625 166.913 78.7787 166.655C78.9324 166.397 79.1399 166.192 79.4012 166.042C79.6624 165.891 79.9545 165.777 80.2772 165.701C80.6 165.624 80.9289 165.565 81.2639 165.525C81.6881 165.476 82.0324 165.436 82.2968 165.406C82.5611 165.372 82.7532 165.318 82.8731 165.244C82.993 165.17 83.0529 165.05 83.0529 164.884V164.852C83.0529 164.45 82.9392 164.138 82.7117 163.916C82.4873 163.695 82.1523 163.584 81.7066 163.584C81.2424 163.584 80.8766 163.687 80.6092 163.893C80.3448 164.096 80.1619 164.322 80.0605 164.571L78.7649 164.276C78.9186 163.846 79.1429 163.498 79.438 163.234C79.7362 162.966 80.0789 162.773 80.4663 162.653C80.8536 162.53 81.2609 162.468 81.6881 162.468C81.9709 162.468 82.2706 162.502 82.5872 162.57C82.9069 162.634 83.2051 162.754 83.4817 162.929C83.7615 163.105 83.9905 163.355 84.1688 163.681C84.347 164.004 84.4362 164.423 84.4362 164.94V169.643H83.0898V168.675H83.0345C82.9454 168.853 82.8116 169.028 82.6334 169.2C82.4551 169.372 82.2261 169.515 81.9463 169.629C81.6666 169.743 81.3316 169.8 80.9412 169.8ZM81.2409 168.693C81.622 168.693 81.9479 168.618 82.2184 168.467C82.492 168.316 82.6994 168.12 82.8408 167.877C82.9853 167.631 83.0576 167.368 83.0576 167.088V166.176C83.0084 166.225 82.9131 166.271 82.7717 166.314C82.6334 166.354 82.475 166.389 82.2968 166.42C82.1185 166.448 81.9448 166.474 81.7757 166.498C81.6067 166.52 81.4653 166.538 81.3515 166.554C81.0841 166.587 80.8397 166.644 80.6184 166.724C80.4002 166.804 80.225 166.919 80.0928 167.07C79.9637 167.218 79.8991 167.414 79.8991 167.66C79.8991 168.001 80.0252 168.26 80.2772 168.435C80.5293 168.607 80.8505 168.693 81.2409 168.693ZM91.5795 164.29L90.33 164.511C90.2777 164.351 90.1947 164.199 90.081 164.055C89.9704 163.91 89.8197 163.792 89.6292 163.7C89.4386 163.607 89.2003 163.561 88.9145 163.561C88.5241 163.561 88.1983 163.649 87.937 163.824C87.6757 163.996 87.5451 164.219 87.5451 164.493C87.5451 164.729 87.6327 164.92 87.8079 165.064C87.9831 165.209 88.2659 165.327 88.6563 165.419L89.7813 165.678C90.433 165.828 90.9186 166.06 91.2383 166.374C91.558 166.687 91.7179 167.095 91.7179 167.596C91.7179 168.02 91.5949 168.398 91.349 168.73C91.1062 169.059 90.7665 169.317 90.33 169.505C89.8966 169.692 89.394 169.786 88.8223 169.786C88.0292 169.786 87.3821 169.617 86.8811 169.279C86.38 168.937 86.0727 168.453 85.9589 167.826L87.2915 167.623C87.3745 167.971 87.5451 168.234 87.8033 168.412C88.0615 168.587 88.3981 168.675 88.813 168.675C89.2649 168.675 89.6261 168.581 89.8966 168.393C90.1671 168.203 90.3023 167.971 90.3023 167.697C90.3023 167.476 90.2193 167.29 90.0533 167.139C89.8904 166.989 89.6399 166.875 89.3018 166.798L88.103 166.535C87.4421 166.385 86.9533 166.145 86.6367 165.816C86.3232 165.487 86.1664 165.07 86.1664 164.566C86.1664 164.148 86.2832 163.783 86.5168 163.469C86.7504 163.155 87.0732 162.911 87.4851 162.736C87.897 162.558 88.3689 162.468 88.9006 162.468C89.666 162.468 90.2685 162.634 90.7081 162.966C91.1477 163.295 91.4381 163.736 91.5795 164.29ZM96.5396 162.561V163.667H92.6712V162.561H96.5396ZM93.7086 160.864H95.0872V167.563C95.0872 167.831 95.1272 168.032 95.2071 168.167C95.287 168.3 95.39 168.39 95.516 168.439C95.6451 168.486 95.785 168.509 95.9356 168.509C96.0463 168.509 96.1431 168.501 96.2261 168.486C96.3091 168.47 96.3737 168.458 96.4198 168.449L96.6688 169.588C96.5888 169.618 96.4751 169.649 96.3275 169.68C96.18 169.714 95.9956 169.732 95.7742 169.735C95.4115 169.741 95.0734 169.677 94.7599 169.541C94.4463 169.406 94.1927 169.197 93.9991 168.914C93.8054 168.632 93.7086 168.277 93.7086 167.849V160.864ZM103.036 169.643L100.952 162.561H102.377L103.765 167.762H103.834L105.226 162.561H106.651L108.034 167.739H108.104L109.482 162.561H110.907L108.828 169.643H107.421L105.983 164.529H105.877L104.438 169.643H103.036ZM115.052 169.786C114.354 169.786 113.753 169.637 113.249 169.339C112.748 169.037 112.361 168.615 112.087 168.071C111.817 167.523 111.682 166.883 111.682 166.148C111.682 165.422 111.817 164.783 112.087 164.23C112.361 163.676 112.742 163.245 113.231 162.934C113.723 162.624 114.298 162.468 114.955 162.468C115.355 162.468 115.742 162.535 116.117 162.667C116.492 162.799 116.829 163.006 117.127 163.289C117.425 163.572 117.66 163.939 117.833 164.391C118.005 164.84 118.091 165.386 118.091 166.028V166.517H112.461V165.484H116.74C116.74 165.121 116.666 164.8 116.518 164.52C116.371 164.237 116.163 164.015 115.896 163.852C115.632 163.689 115.321 163.607 114.965 163.607C114.577 163.607 114.239 163.703 113.95 163.893C113.664 164.081 113.443 164.327 113.286 164.631C113.133 164.932 113.056 165.26 113.056 165.613V166.42C113.056 166.893 113.139 167.296 113.305 167.628C113.474 167.96 113.709 168.214 114.01 168.389C114.311 168.561 114.663 168.647 115.066 168.647C115.327 168.647 115.566 168.61 115.781 168.536C115.996 168.459 116.182 168.346 116.339 168.195C116.495 168.044 116.615 167.858 116.698 167.637L118.003 167.872C117.899 168.257 117.711 168.593 117.441 168.882C117.173 169.168 116.837 169.391 116.431 169.551C116.028 169.707 115.569 169.786 115.052 169.786ZM122.673 169.786C121.975 169.786 121.374 169.637 120.87 169.339C120.369 169.037 119.982 168.615 119.708 168.071C119.437 167.523 119.302 166.883 119.302 166.148C119.302 165.422 119.437 164.783 119.708 164.23C119.982 163.676 120.363 163.245 120.851 162.934C121.343 162.624 121.918 162.468 122.576 162.468C122.976 162.468 123.363 162.535 123.738 162.667C124.113 162.799 124.449 163.006 124.748 163.289C125.046 163.572 125.281 163.939 125.453 164.391C125.625 164.84 125.711 165.386 125.711 166.028V166.517H120.081V165.484H124.36C124.36 165.121 124.287 164.8 124.139 164.52C123.991 164.237 123.784 164.015 123.517 163.852C123.252 163.689 122.942 163.607 122.585 163.607C122.198 163.607 121.86 163.703 121.571 163.893C121.285 164.081 121.064 164.327 120.907 164.631C120.753 164.932 120.676 165.26 120.676 165.613V166.42C120.676 166.893 120.759 167.296 120.925 167.628C121.094 167.96 121.329 168.214 121.631 168.389C121.932 168.561 122.284 168.647 122.687 168.647C122.948 168.647 123.186 168.61 123.401 168.536C123.616 168.459 123.802 168.346 123.959 168.195C124.116 168.044 124.236 167.858 124.319 167.637L125.624 167.872C125.519 168.257 125.332 168.593 125.061 168.882C124.794 169.168 124.457 169.391 124.051 169.551C123.649 169.707 123.189 169.786 122.673 169.786ZM128.509 167.241L128.5 165.558H128.739L131.561 162.561H133.212L129.994 165.973H129.777L128.509 167.241ZM127.241 169.643V160.2H128.62V169.643H127.241ZM131.713 169.643L129.177 166.277L130.127 165.313L133.406 169.643H131.713Z" fill="#5A6475"/>
<path d="M165.031 169.643V160.2H166.456V168.416H170.735V169.643H165.031ZM174.311 169.8C173.862 169.8 173.456 169.717 173.094 169.551C172.731 169.382 172.443 169.137 172.231 168.818C172.022 168.498 171.918 168.106 171.918 167.642C171.918 167.242 171.995 166.913 172.148 166.655C172.302 166.397 172.51 166.192 172.771 166.042C173.032 165.891 173.324 165.777 173.647 165.701C173.97 165.624 174.299 165.565 174.634 165.525C175.058 165.476 175.402 165.436 175.666 165.406C175.931 165.372 176.123 165.318 176.243 165.244C176.363 165.17 176.423 165.05 176.423 164.884V164.852C176.423 164.45 176.309 164.138 176.081 163.916C175.857 163.695 175.522 163.584 175.076 163.584C174.612 163.584 174.246 163.687 173.979 163.893C173.714 164.096 173.532 164.322 173.43 164.571L172.134 164.276C172.288 163.846 172.513 163.498 172.808 163.234C173.106 162.966 173.449 162.773 173.836 162.653C174.223 162.53 174.63 162.468 175.058 162.468C175.341 162.468 175.64 162.502 175.957 162.57C176.277 162.634 176.575 162.754 176.851 162.929C177.131 163.105 177.36 163.355 177.538 163.681C177.717 164.004 177.806 164.423 177.806 164.94V169.643H176.459V168.675H176.404C176.315 168.853 176.181 169.028 176.003 169.2C175.825 169.372 175.596 169.515 175.316 169.629C175.036 169.743 174.701 169.8 174.311 169.8ZM174.611 168.693C174.992 168.693 175.318 168.618 175.588 168.467C175.862 168.316 176.069 168.12 176.21 167.877C176.355 167.631 176.427 167.368 176.427 167.088V166.176C176.378 166.225 176.283 166.271 176.141 166.314C176.003 166.354 175.845 166.389 175.666 166.42C175.488 166.448 175.314 166.474 175.145 166.498C174.976 166.52 174.835 166.538 174.721 166.554C174.454 166.587 174.209 166.644 173.988 166.724C173.77 166.804 173.595 166.919 173.462 167.07C173.333 167.218 173.269 167.414 173.269 167.66C173.269 168.001 173.395 168.26 173.647 168.435C173.899 168.607 174.22 168.693 174.611 168.693ZM184.949 164.29L183.7 164.511C183.647 164.351 183.564 164.199 183.451 164.055C183.34 163.91 183.189 163.792 182.999 163.7C182.808 163.607 182.57 163.561 182.284 163.561C181.894 163.561 181.568 163.649 181.307 163.824C181.045 163.996 180.915 164.219 180.915 164.493C180.915 164.729 181.002 164.92 181.177 165.064C181.353 165.209 181.636 165.327 182.026 165.419L183.151 165.678C183.803 165.828 184.288 166.06 184.608 166.374C184.928 166.687 185.087 167.095 185.087 167.596C185.087 168.02 184.965 168.398 184.719 168.73C184.476 169.059 184.136 169.317 183.7 169.505C183.266 169.692 182.764 169.786 182.192 169.786C181.399 169.786 180.752 169.617 180.251 169.279C179.75 168.937 179.442 168.453 179.329 167.826L180.661 167.623C180.744 167.971 180.915 168.234 181.173 168.412C181.431 168.587 181.768 168.675 182.183 168.675C182.635 168.675 182.996 168.581 183.266 168.393C183.537 168.203 183.672 167.971 183.672 167.697C183.672 167.476 183.589 167.29 183.423 167.139C183.26 166.989 183.01 166.875 182.671 166.798L181.473 166.535C180.812 166.385 180.323 166.145 180.006 165.816C179.693 165.487 179.536 165.07 179.536 164.566C179.536 164.148 179.653 163.783 179.886 163.469C180.12 163.155 180.443 162.911 180.855 162.736C181.267 162.558 181.738 162.468 182.27 162.468C183.036 162.468 183.638 162.634 184.078 162.966C184.517 163.295 184.808 163.736 184.949 164.29ZM189.909 162.561V163.667H186.041V162.561H189.909ZM187.078 160.864H188.457V167.563C188.457 167.831 188.497 168.032 188.577 168.167C188.657 168.3 188.76 168.39 188.886 168.439C189.015 168.486 189.155 168.509 189.305 168.509C189.416 168.509 189.513 168.501 189.596 168.486C189.679 168.47 189.743 168.458 189.789 168.449L190.038 169.588C189.958 169.618 189.845 169.649 189.697 169.68C189.55 169.714 189.365 169.732 189.144 169.735C188.781 169.741 188.443 169.677 188.129 169.541C187.816 169.406 187.562 169.197 187.369 168.914C187.175 168.632 187.078 168.277 187.078 167.849V160.864ZM194.981 169.643V160.2H198.347C199.082 160.2 199.69 160.334 200.173 160.601C200.656 160.868 201.017 161.234 201.257 161.698C201.496 162.159 201.616 162.679 201.616 163.257C201.616 163.838 201.495 164.36 201.252 164.825C201.012 165.286 200.649 165.651 200.164 165.922C199.681 166.189 199.074 166.323 198.343 166.323H196.028V165.115H198.213C198.678 165.115 199.054 165.035 199.343 164.875C199.632 164.712 199.844 164.491 199.979 164.211C200.115 163.932 200.182 163.613 200.182 163.257C200.182 162.9 200.115 162.584 199.979 162.307C199.844 162.03 199.63 161.814 199.338 161.657C199.05 161.5 198.668 161.422 198.195 161.422H196.406V169.643H194.981ZM207.662 166.706V162.561H209.045V169.643H207.69V168.416H207.616C207.453 168.794 207.192 169.11 206.832 169.362C206.476 169.611 206.031 169.735 205.5 169.735C205.045 169.735 204.642 169.635 204.292 169.435C203.944 169.233 203.671 168.933 203.471 168.536C203.274 168.14 203.176 167.649 203.176 167.065V162.561H204.554V166.899C204.554 167.382 204.688 167.766 204.956 168.052C205.223 168.338 205.57 168.481 205.998 168.481C206.256 168.481 206.513 168.416 206.768 168.287C207.026 168.158 207.24 167.963 207.409 167.702C207.581 167.44 207.665 167.108 207.662 166.706ZM210.898 169.643V162.561H212.23V163.686H212.304C212.433 163.305 212.661 163.005 212.987 162.787C213.315 162.565 213.687 162.455 214.102 162.455C214.188 162.455 214.29 162.458 214.407 162.464C214.527 162.47 214.62 162.478 214.688 162.487V163.806C214.633 163.79 214.534 163.773 214.393 163.755C214.251 163.733 214.11 163.723 213.969 163.723C213.643 163.723 213.352 163.792 213.097 163.93C212.845 164.065 212.645 164.254 212.498 164.497C212.35 164.737 212.276 165.011 212.276 165.318V169.643H210.898ZM218.611 169.786C217.925 169.786 217.335 169.631 216.84 169.32C216.348 169.007 215.97 168.575 215.706 168.024C215.441 167.474 215.309 166.844 215.309 166.134C215.309 165.415 215.444 164.78 215.715 164.23C215.986 163.676 216.367 163.245 216.858 162.934C217.35 162.624 217.93 162.468 218.597 162.468C219.135 162.468 219.614 162.568 220.035 162.768C220.456 162.965 220.796 163.241 221.054 163.598C221.316 163.955 221.471 164.371 221.52 164.848H220.178C220.105 164.516 219.935 164.23 219.671 163.99C219.41 163.75 219.059 163.63 218.62 163.63C218.236 163.63 217.899 163.732 217.61 163.935C217.324 164.134 217.101 164.42 216.941 164.792C216.782 165.161 216.702 165.598 216.702 166.102C216.702 166.618 216.78 167.064 216.937 167.439C217.094 167.814 217.315 168.104 217.601 168.31C217.89 168.516 218.229 168.619 218.62 168.619C218.881 168.619 219.118 168.572 219.33 168.476C219.545 168.378 219.725 168.238 219.869 168.057C220.017 167.875 220.12 167.657 220.178 167.402H221.52C221.471 167.86 221.322 168.269 221.073 168.628C220.824 168.988 220.49 169.271 220.072 169.477C219.657 169.683 219.17 169.786 218.611 169.786ZM224.373 165.438V169.643H222.994V160.2H224.355V163.713H224.442C224.608 163.332 224.862 163.029 225.203 162.805C225.544 162.581 225.99 162.468 226.54 162.468C227.026 162.468 227.45 162.568 227.813 162.768C228.178 162.968 228.461 163.266 228.661 163.663C228.864 164.056 228.965 164.548 228.965 165.138V169.643H227.587V165.304C227.587 164.785 227.453 164.382 227.186 164.096C226.918 163.807 226.546 163.663 226.07 163.663C225.744 163.663 225.452 163.732 225.194 163.87C224.939 164.008 224.737 164.211 224.59 164.479C224.445 164.743 224.373 165.063 224.373 165.438ZM232.866 169.8C232.417 169.8 232.012 169.717 231.649 169.551C231.286 169.382 230.999 169.137 230.787 168.818C230.578 168.498 230.473 168.106 230.473 167.642C230.473 167.242 230.55 166.913 230.704 166.655C230.857 166.397 231.065 166.192 231.326 166.042C231.587 165.891 231.879 165.777 232.202 165.701C232.525 165.624 232.854 165.565 233.189 165.525C233.613 165.476 233.957 165.436 234.222 165.406C234.486 165.372 234.678 165.318 234.798 165.244C234.918 165.17 234.978 165.05 234.978 164.884V164.852C234.978 164.45 234.864 164.138 234.637 163.916C234.412 163.695 234.077 163.584 233.632 163.584C233.167 163.584 232.802 163.687 232.534 163.893C232.27 164.096 232.087 164.322 231.986 164.571L230.69 164.276C230.844 163.846 231.068 163.498 231.363 163.234C231.661 162.966 232.004 162.773 232.391 162.653C232.779 162.53 233.186 162.468 233.613 162.468C233.896 162.468 234.196 162.502 234.512 162.57C234.832 162.634 235.13 162.754 235.407 162.929C235.686 163.105 235.915 163.355 236.094 163.681C236.272 164.004 236.361 164.423 236.361 164.94V169.643H235.015V168.675H234.959C234.87 168.853 234.737 169.028 234.558 169.2C234.38 169.372 234.151 169.515 233.871 169.629C233.592 169.743 233.257 169.8 232.866 169.8ZM233.166 168.693C233.547 168.693 233.873 168.618 234.143 168.467C234.417 168.316 234.624 168.12 234.766 167.877C234.91 167.631 234.983 167.368 234.983 167.088V166.176C234.933 166.225 234.838 166.271 234.697 166.314C234.558 166.354 234.4 166.389 234.222 166.42C234.043 166.448 233.87 166.474 233.701 166.498C233.532 166.52 233.39 166.538 233.277 166.554C233.009 166.587 232.765 166.644 232.543 166.724C232.325 166.804 232.15 166.919 232.018 167.07C231.889 167.218 231.824 167.414 231.824 167.66C231.824 168.001 231.95 168.26 232.202 168.435C232.454 168.607 232.775 168.693 233.166 168.693ZM243.505 164.29L242.255 164.511C242.203 164.351 242.12 164.199 242.006 164.055C241.895 163.91 241.745 163.792 241.554 163.7C241.364 163.607 241.125 163.561 240.839 163.561C240.449 163.561 240.123 163.649 239.862 163.824C239.601 163.996 239.47 164.219 239.47 164.493C239.47 164.729 239.558 164.92 239.733 165.064C239.908 165.209 240.191 165.327 240.581 165.419L241.706 165.678C242.358 165.828 242.844 166.06 243.163 166.374C243.483 166.687 243.643 167.095 243.643 167.596C243.643 168.02 243.52 168.398 243.274 168.73C243.031 169.059 242.691 169.317 242.255 169.505C241.822 169.692 241.319 169.786 240.747 169.786C239.954 169.786 239.307 169.617 238.806 169.279C238.305 168.937 237.998 168.453 237.884 167.826L239.216 167.623C239.299 167.971 239.47 168.234 239.728 168.412C239.986 168.587 240.323 168.675 240.738 168.675C241.19 168.675 241.551 168.581 241.822 168.393C242.092 168.203 242.227 167.971 242.227 167.697C242.227 167.476 242.144 167.29 241.978 167.139C241.815 166.989 241.565 166.875 241.227 166.798L240.028 166.535C239.367 166.385 238.878 166.145 238.562 165.816C238.248 165.487 238.091 165.07 238.091 164.566C238.091 164.148 238.208 163.783 238.442 163.469C238.675 163.155 238.998 162.911 239.41 162.736C239.822 162.558 240.294 162.468 240.826 162.468C241.591 162.468 242.194 162.634 242.633 162.966C243.073 163.295 243.363 163.736 243.505 164.29ZM248.211 169.786C247.513 169.786 246.912 169.637 246.408 169.339C245.907 169.037 245.52 168.615 245.246 168.071C244.976 167.523 244.841 166.883 244.841 166.148C244.841 165.422 244.976 164.783 245.246 164.23C245.52 163.676 245.901 163.245 246.39 162.934C246.882 162.624 247.456 162.468 248.114 162.468C248.514 162.468 248.901 162.535 249.276 162.667C249.651 162.799 249.988 163.006 250.286 163.289C250.584 163.572 250.819 163.939 250.991 164.391C251.164 164.84 251.25 165.386 251.25 166.028V166.517H245.62V165.484H249.899C249.899 165.121 249.825 164.8 249.677 164.52C249.53 164.237 249.322 164.015 249.055 163.852C248.79 163.689 248.48 163.607 248.123 163.607C247.736 163.607 247.398 163.703 247.109 163.893C246.823 164.081 246.602 164.327 246.445 164.631C246.291 164.932 246.215 165.26 246.215 165.613V166.42C246.215 166.893 246.298 167.296 246.464 167.628C246.633 167.96 246.868 168.214 247.169 168.389C247.47 168.561 247.822 168.647 248.225 168.647C248.486 168.647 248.724 168.61 248.94 168.536C249.155 168.459 249.341 168.346 249.497 168.195C249.654 168.044 249.774 167.858 249.857 167.637L251.162 167.872C251.057 168.257 250.87 168.593 250.599 168.882C250.332 169.168 249.995 169.391 249.59 169.551C249.187 169.707 248.727 169.786 248.211 169.786ZM255.43 169.781C254.859 169.781 254.348 169.635 253.9 169.343C253.454 169.048 253.104 168.628 252.848 168.084C252.596 167.537 252.47 166.881 252.47 166.116C252.47 165.35 252.598 164.695 252.853 164.151C253.111 163.607 253.465 163.191 253.914 162.902C254.362 162.613 254.871 162.468 255.44 162.468C255.879 162.468 256.233 162.542 256.5 162.69C256.771 162.834 256.98 163.003 257.127 163.197C257.278 163.391 257.395 163.561 257.478 163.709H257.561V160.2H258.939V169.643H257.593V168.541H257.478C257.395 168.692 257.275 168.864 257.118 169.057C256.964 169.251 256.752 169.42 256.482 169.564C256.211 169.709 255.861 169.781 255.43 169.781ZM255.735 168.605C256.131 168.605 256.466 168.501 256.74 168.292C257.017 168.08 257.226 167.786 257.367 167.411C257.512 167.036 257.584 166.6 257.584 166.102C257.584 165.61 257.513 165.18 257.372 164.811C257.23 164.442 257.023 164.154 256.749 163.948C256.476 163.743 256.137 163.64 255.735 163.64C255.32 163.64 254.974 163.747 254.697 163.962C254.421 164.178 254.212 164.471 254.07 164.843C253.932 165.215 253.863 165.635 253.863 166.102C253.863 166.575 253.933 167.001 254.075 167.379C254.216 167.757 254.425 168.057 254.702 168.278C254.982 168.496 255.326 168.605 255.735 168.605ZM264.744 164.921C264.744 163.766 264.897 162.702 265.201 161.731C265.505 160.759 265.949 159.863 266.533 159.043H267.797C267.569 159.347 267.357 159.72 267.16 160.163C266.964 160.606 266.792 161.091 266.644 161.62C266.496 162.146 266.381 162.691 266.298 163.257C266.215 163.819 266.174 164.374 266.174 164.921C266.174 165.653 266.246 166.394 266.39 167.144C266.535 167.894 266.73 168.59 266.976 169.233C267.222 169.875 267.496 170.399 267.797 170.805H266.533C265.949 169.984 265.505 169.088 265.201 168.117C264.897 167.145 264.744 166.08 264.744 164.921ZM272.797 169.643V160.2H278.653V161.426H274.222V164.304H278.233V165.525H274.222V169.643H272.797ZM282.827 169.786C282.129 169.786 281.528 169.637 281.024 169.339C280.523 169.037 280.136 168.615 279.862 168.071C279.592 167.523 279.456 166.883 279.456 166.148C279.456 165.422 279.592 164.783 279.862 164.23C280.136 163.676 280.517 163.245 281.006 162.934C281.497 162.624 282.072 162.468 282.73 162.468C283.13 162.468 283.517 162.535 283.892 162.667C284.267 162.799 284.604 163.006 284.902 163.289C285.2 163.572 285.435 163.939 285.607 164.391C285.779 164.84 285.865 165.386 285.865 166.028V166.517H280.236V165.484H284.515C284.515 165.121 284.441 164.8 284.293 164.52C284.146 164.237 283.938 164.015 283.671 163.852C283.406 163.689 283.096 163.607 282.739 163.607C282.352 163.607 282.014 163.703 281.725 163.893C281.439 164.081 281.218 164.327 281.061 164.631C280.907 164.932 280.83 165.26 280.83 165.613V166.42C280.83 166.893 280.913 167.296 281.079 167.628C281.248 167.96 281.484 168.214 281.785 168.389C282.086 168.561 282.438 168.647 282.841 168.647C283.102 168.647 283.34 168.61 283.555 168.536C283.771 168.459 283.957 168.346 284.113 168.195C284.27 168.044 284.39 167.858 284.473 167.637L285.778 167.872C285.673 168.257 285.486 168.593 285.215 168.882C284.948 169.168 284.611 169.391 284.206 169.551C283.803 169.707 283.343 169.786 282.827 169.786ZM287.506 169.643V160.2H288.884V163.709H288.967C289.047 163.561 289.163 163.391 289.313 163.197C289.464 163.003 289.673 162.834 289.94 162.69C290.208 162.542 290.561 162.468 291.001 162.468C291.573 162.468 292.083 162.613 292.532 162.902C292.98 163.191 293.332 163.607 293.587 164.151C293.846 164.695 293.975 165.35 293.975 166.116C293.975 166.881 293.847 167.537 293.592 168.084C293.337 168.628 292.987 169.048 292.541 169.343C292.095 169.635 291.586 169.781 291.015 169.781C290.584 169.781 290.232 169.709 289.959 169.564C289.688 169.42 289.476 169.251 289.322 169.057C289.169 168.864 289.05 168.692 288.967 168.541H288.852V169.643H287.506ZM288.857 166.102C288.857 166.6 288.929 167.036 289.073 167.411C289.218 167.786 289.427 168.08 289.701 168.292C289.974 168.501 290.309 168.605 290.706 168.605C291.118 168.605 291.462 168.496 291.739 168.278C292.015 168.057 292.224 167.757 292.366 167.379C292.51 167.001 292.582 166.575 292.582 166.102C292.582 165.635 292.512 165.215 292.37 164.843C292.232 164.471 292.023 164.178 291.743 163.962C291.466 163.747 291.121 163.64 290.706 163.64C290.306 163.64 289.968 163.743 289.691 163.948C289.418 164.154 289.21 164.442 289.069 164.811C288.927 165.18 288.857 165.61 288.857 166.102ZM298.941 169.643V168.61L302.136 165.299C302.477 164.94 302.758 164.625 302.98 164.354C303.204 164.081 303.372 163.821 303.482 163.575C303.593 163.329 303.648 163.068 303.648 162.791C303.648 162.478 303.575 162.207 303.427 161.98C303.279 161.749 303.078 161.572 302.823 161.449C302.568 161.323 302.28 161.26 301.961 161.26C301.623 161.26 301.328 161.33 301.075 161.468C300.823 161.606 300.63 161.801 300.495 162.053C300.359 162.305 300.292 162.601 300.292 162.939H298.931C298.931 162.364 299.064 161.861 299.328 161.431C299.592 161.001 299.955 160.667 300.416 160.43C300.877 160.191 301.401 160.071 301.988 160.071C302.582 160.071 303.104 160.189 303.556 160.426C304.011 160.659 304.366 160.979 304.621 161.385C304.876 161.788 305.004 162.242 305.004 162.75C305.004 163.1 304.938 163.443 304.806 163.778C304.677 164.113 304.451 164.486 304.128 164.898C303.805 165.307 303.356 165.804 302.781 166.388L300.905 168.352V168.421H305.156V169.643H298.941ZM306.502 167.799V166.646L310.583 160.2H311.491V161.897H310.915L307.996 166.517V166.591H313.589V167.799H306.502ZM310.98 169.643V167.448L310.989 166.922V160.2H312.34V169.643H310.98ZM322.215 160.2V169.643H320.786V161.629H320.73L318.471 163.105V161.74L320.827 160.2H322.215ZM327.909 160.071C328.331 160.074 328.746 160.151 329.154 160.301C329.563 160.452 329.932 160.698 330.261 161.039C330.593 161.38 330.857 161.841 331.054 162.422C331.254 163 331.355 163.719 331.358 164.58C331.358 165.407 331.275 166.143 331.109 166.789C330.943 167.431 330.705 167.974 330.395 168.416C330.087 168.859 329.714 169.196 329.274 169.426C328.835 169.657 328.34 169.772 327.79 169.772C327.227 169.772 326.728 169.661 326.291 169.44C325.855 169.219 325.499 168.913 325.226 168.522C324.952 168.129 324.782 167.677 324.714 167.167H326.12C326.213 167.573 326.4 167.902 326.683 168.154C326.969 168.403 327.338 168.527 327.79 168.527C328.481 168.527 329.021 168.226 329.408 167.623C329.795 167.018 329.99 166.172 329.994 165.087H329.92C329.76 165.352 329.56 165.579 329.32 165.77C329.084 165.96 328.818 166.108 328.523 166.212C328.228 166.317 327.913 166.369 327.577 166.369C327.033 166.369 326.538 166.235 326.093 165.968C325.647 165.701 325.292 165.333 325.028 164.866C324.763 164.399 324.631 163.865 324.631 163.266C324.631 162.67 324.766 162.129 325.037 161.643C325.31 161.157 325.692 160.773 326.18 160.49C326.672 160.204 327.249 160.065 327.909 160.071ZM327.914 161.27C327.554 161.27 327.23 161.359 326.941 161.537C326.655 161.712 326.429 161.95 326.263 162.252C326.097 162.55 326.014 162.882 326.014 163.248C326.014 163.613 326.094 163.945 326.254 164.244C326.417 164.539 326.638 164.774 326.918 164.949C327.201 165.121 327.524 165.207 327.886 165.207C328.157 165.207 328.409 165.155 328.643 165.05C328.876 164.946 329.081 164.802 329.256 164.617C329.431 164.43 329.568 164.217 329.666 163.981C329.765 163.744 329.814 163.495 329.814 163.234C329.814 162.886 329.731 162.564 329.565 162.266C329.402 161.967 329.177 161.728 328.892 161.546C328.606 161.362 328.28 161.27 327.914 161.27ZM333.951 168.472C333.699 168.472 333.482 168.383 333.301 168.204C333.119 168.023 333.029 167.805 333.029 167.55C333.029 167.298 333.119 167.082 333.301 166.904C333.482 166.723 333.699 166.632 333.951 166.632C334.203 166.632 334.42 166.723 334.601 166.904C334.782 167.082 334.873 167.298 334.873 167.55C334.873 167.719 334.83 167.874 334.744 168.015C334.661 168.154 334.55 168.264 334.412 168.347C334.274 168.43 334.12 168.472 333.951 168.472ZM333.951 163.741C333.699 163.741 333.482 163.652 333.301 163.474C333.119 163.292 333.029 163.074 333.029 162.819C333.029 162.567 333.119 162.352 333.301 162.173C333.482 161.992 333.699 161.901 333.951 161.901C334.203 161.901 334.42 161.992 334.601 162.173C334.782 162.352 334.873 162.567 334.873 162.819C334.873 162.988 334.83 163.143 334.744 163.285C334.661 163.423 334.55 163.534 334.412 163.617C334.274 163.7 334.12 163.741 333.951 163.741ZM339.818 169.772C339.24 169.772 338.721 169.661 338.26 169.44C337.802 169.216 337.436 168.908 337.162 168.518C336.889 168.127 336.743 167.682 336.724 167.181H338.107C338.141 167.586 338.321 167.92 338.647 168.181C338.973 168.443 339.363 168.573 339.818 168.573C340.181 168.573 340.502 168.49 340.782 168.324C341.065 168.155 341.286 167.923 341.446 167.628C341.609 167.333 341.69 166.996 341.69 166.618C341.69 166.234 341.607 165.891 341.441 165.59C341.275 165.289 341.046 165.052 340.754 164.88C340.465 164.708 340.133 164.62 339.758 164.617C339.472 164.617 339.185 164.666 338.896 164.765C338.607 164.863 338.373 164.992 338.195 165.152L336.89 164.958L337.42 160.2H342.612V161.422H338.605L338.306 164.064H338.361C338.545 163.885 338.79 163.736 339.094 163.617C339.402 163.497 339.73 163.437 340.081 163.437C340.656 163.437 341.168 163.573 341.616 163.847C342.068 164.121 342.423 164.494 342.681 164.967C342.943 165.438 343.072 165.979 343.069 166.591C343.072 167.202 342.933 167.748 342.654 168.227C342.377 168.707 341.993 169.085 341.501 169.362C341.012 169.635 340.451 169.772 339.818 169.772ZM347.893 160.071C348.314 160.074 348.729 160.151 349.138 160.301C349.547 160.452 349.915 160.698 350.244 161.039C350.576 161.38 350.841 161.841 351.037 162.422C351.237 163 351.339 163.719 351.342 164.58C351.342 165.407 351.259 166.143 351.093 166.789C350.927 167.431 350.689 167.974 350.378 168.416C350.071 168.859 349.697 169.196 349.258 169.426C348.818 169.657 348.323 169.772 347.773 169.772C347.21 169.772 346.711 169.661 346.274 169.44C345.838 169.219 345.483 168.913 345.209 168.522C344.936 168.129 344.765 167.677 344.698 167.167H346.104C346.196 167.573 346.384 167.902 346.666 168.154C346.952 168.403 347.321 168.527 347.773 168.527C348.465 168.527 349.004 168.226 349.391 167.623C349.779 167.018 349.974 166.172 349.977 165.087H349.903C349.743 165.352 349.543 165.579 349.304 165.77C349.067 165.96 348.801 166.108 348.506 166.212C348.211 166.317 347.896 166.369 347.561 166.369C347.017 166.369 346.522 166.235 346.076 165.968C345.63 165.701 345.275 165.333 345.011 164.866C344.747 164.399 344.615 163.865 344.615 163.266C344.615 162.67 344.75 162.129 345.02 161.643C345.294 161.157 345.675 160.773 346.164 160.49C346.656 160.204 347.232 160.065 347.893 160.071ZM347.897 161.27C347.538 161.27 347.213 161.359 346.925 161.537C346.639 161.712 346.413 161.95 346.247 162.252C346.081 162.55 345.998 162.882 345.998 163.248C345.998 163.613 346.078 163.945 346.238 164.244C346.4 164.539 346.622 164.774 346.901 164.949C347.184 165.121 347.507 165.207 347.87 165.207C348.14 165.207 348.392 165.155 348.626 165.05C348.86 164.946 349.064 164.802 349.239 164.617C349.414 164.43 349.551 164.217 349.65 163.981C349.748 163.744 349.797 163.495 349.797 163.234C349.797 162.886 349.714 162.564 349.548 162.266C349.385 161.967 349.161 161.728 348.875 161.546C348.589 161.362 348.263 161.27 347.897 161.27ZM362.645 160.2H364.075V166.411C364.075 167.072 363.919 167.657 363.609 168.167C363.298 168.675 362.862 169.074 362.299 169.366C361.737 169.655 361.078 169.8 360.321 169.8C359.568 169.8 358.91 169.655 358.348 169.366C357.785 169.074 357.349 168.675 357.038 168.167C356.728 167.657 356.573 167.072 356.573 166.411V160.2H357.997V166.295C357.997 166.723 358.091 167.102 358.279 167.434C358.469 167.766 358.738 168.028 359.086 168.218C359.433 168.406 359.845 168.499 360.321 168.499C360.801 168.499 361.214 168.406 361.562 168.218C361.912 168.028 362.179 167.766 362.364 167.434C362.551 167.102 362.645 166.723 362.645 166.295V160.2ZM365.68 161.426V160.2H372.988V161.426H370.042V169.643H368.622V161.426H365.68ZM382.041 163.271H380.602C380.547 162.963 380.444 162.693 380.293 162.459C380.143 162.226 379.958 162.027 379.74 161.864C379.522 161.701 379.277 161.579 379.007 161.496C378.739 161.413 378.455 161.371 378.154 161.371C377.61 161.371 377.122 161.508 376.692 161.781C376.265 162.055 375.927 162.456 375.678 162.985C375.432 163.514 375.309 164.159 375.309 164.921C375.309 165.69 375.432 166.338 375.678 166.867C375.927 167.396 376.266 167.795 376.697 168.066C377.127 168.336 377.611 168.472 378.149 168.472C378.447 168.472 378.73 168.432 378.998 168.352C379.268 168.269 379.512 168.147 379.731 167.988C379.949 167.828 380.133 167.633 380.284 167.402C380.438 167.168 380.544 166.901 380.602 166.6L382.041 166.604C381.964 167.068 381.815 167.496 381.593 167.886C381.375 168.273 381.094 168.609 380.75 168.891C380.408 169.171 380.018 169.388 379.579 169.541C379.139 169.695 378.659 169.772 378.14 169.772C377.322 169.772 376.594 169.578 375.954 169.191C375.315 168.801 374.811 168.243 374.442 167.517C374.076 166.792 373.893 165.927 373.893 164.921C373.893 163.913 374.078 163.048 374.447 162.325C374.816 161.6 375.32 161.044 375.959 160.656C376.598 160.266 377.325 160.071 378.14 160.071C378.641 160.071 379.108 160.143 379.542 160.287C379.978 160.429 380.37 160.638 380.717 160.915C381.065 161.188 381.352 161.523 381.58 161.92C381.807 162.313 381.961 162.764 382.041 163.271ZM387.808 164.322V165.521H383.621V164.322H387.808ZM392.744 169.772C392.166 169.772 391.646 169.661 391.185 169.44C390.727 169.216 390.361 168.908 390.088 168.518C389.814 168.127 389.668 167.682 389.65 167.181H391.033C391.067 167.586 391.247 167.92 391.572 168.181C391.898 168.443 392.289 168.573 392.744 168.573C393.106 168.573 393.428 168.49 393.707 168.324C393.99 168.155 394.211 167.923 394.371 167.628C394.534 167.333 394.616 166.996 394.616 166.618C394.616 166.234 394.533 165.891 394.367 165.59C394.201 165.289 393.972 165.052 393.68 164.88C393.391 164.708 393.059 164.62 392.684 164.617C392.398 164.617 392.11 164.666 391.821 164.765C391.533 164.863 391.299 164.992 391.121 165.152L389.816 164.958L390.346 160.2H395.538V161.422H391.531L391.231 164.064H391.287C391.471 163.885 391.715 163.736 392.02 163.617C392.327 163.497 392.656 163.437 393.006 163.437C393.581 163.437 394.093 163.573 394.542 163.847C394.994 164.121 395.349 164.494 395.607 164.967C395.868 165.438 395.997 165.979 395.994 166.591C395.997 167.202 395.859 167.748 395.579 168.227C395.303 168.707 394.918 169.085 394.427 169.362C393.938 169.635 393.377 169.772 392.744 169.772ZM403.784 164.921C403.784 166.08 403.632 167.145 403.328 168.117C403.023 169.088 402.579 169.984 401.995 170.805H400.732C400.959 170.5 401.171 170.127 401.368 169.684C401.565 169.242 401.737 168.758 401.885 168.232C402.032 167.703 402.147 167.156 402.23 166.591C402.313 166.025 402.355 165.469 402.355 164.921C402.355 164.193 402.283 163.454 402.138 162.704C401.994 161.954 401.799 161.257 401.553 160.615C401.307 159.972 401.033 159.448 400.732 159.043H401.995C402.579 159.863 403.023 160.759 403.328 161.731C403.632 162.702 403.784 163.766 403.784 164.921Z" fill="#5A6475"/>
<path d="M64.1704 218.882V217.729L68.251 211.283H69.1593V212.98H68.583L65.6643 217.6V217.674H71.2573V218.882H64.1704ZM68.6475 220.726V218.531L68.6567 218.006V211.283H70.0077V220.726H68.6475ZM76.1517 220.883C75.4232 220.88 74.8007 220.688 74.2843 220.307C73.7679 219.925 73.3729 219.371 73.0993 218.642C72.8257 217.914 72.6889 217.036 72.6889 216.009C72.6889 214.986 72.8257 214.111 73.0993 213.386C73.3759 212.66 73.7725 212.107 74.2889 211.726C74.8084 211.345 75.4293 211.154 76.1517 211.154C76.874 211.154 77.4934 211.346 78.0098 211.73C78.5262 212.112 78.9212 212.665 79.1948 213.39C79.4715 214.113 79.6098 214.986 79.6098 216.009C79.6098 217.039 79.473 217.918 79.1994 218.647C78.9259 219.372 78.5309 219.927 78.0144 220.311C77.498 220.692 76.8771 220.883 76.1517 220.883ZM76.1517 219.652C76.791 219.652 77.2905 219.34 77.6502 218.716C78.0129 218.092 78.1943 217.19 78.1943 216.009C78.1943 215.225 78.1113 214.563 77.9453 214.022C77.7824 213.478 77.5472 213.066 77.2398 212.786C76.9355 212.503 76.5728 212.362 76.1517 212.362C75.5154 212.362 75.0159 212.676 74.6531 213.303C74.2904 213.93 74.1075 214.832 74.1045 216.009C74.1045 216.796 74.1859 217.462 74.3488 218.006C74.5148 218.547 74.75 218.957 75.0543 219.237C75.3586 219.513 75.7244 219.652 76.1517 219.652ZM84.533 220.883C83.8045 220.88 83.182 220.688 82.6656 220.307C82.1492 219.925 81.7542 219.371 81.4806 218.642C81.2071 217.914 81.0703 217.036 81.0703 216.009C81.0703 214.986 81.2071 214.111 81.4806 213.386C81.7573 212.66 82.1538 212.107 82.6702 211.726C83.1897 211.345 83.8107 211.154 84.533 211.154C85.2554 211.154 85.8748 211.346 86.3912 211.73C86.9076 212.112 87.3026 212.665 87.5762 213.39C87.8528 214.113 87.9912 214.986 87.9912 216.009C87.9912 217.039 87.8544 217.918 87.5808 218.647C87.3072 219.372 86.9122 219.927 86.3958 220.311C85.8794 220.692 85.2585 220.883 84.533 220.883ZM84.533 219.652C85.1724 219.652 85.6719 219.34 86.0315 218.716C86.3943 218.092 86.5756 217.19 86.5756 216.009C86.5756 215.225 86.4926 214.563 86.3266 214.022C86.1637 213.478 85.9286 213.066 85.6212 212.786C85.3169 212.503 84.9541 212.362 84.533 212.362C83.8967 212.362 83.3972 212.676 83.0345 213.303C82.6718 213.93 82.4889 214.832 82.4858 216.009C82.4858 216.796 82.5673 217.462 82.7302 218.006C82.8962 218.547 83.1313 218.957 83.4356 219.237C83.74 219.513 84.1058 219.652 84.533 219.652ZM99.2647 211.283H100.694V217.494C100.694 218.155 100.539 218.74 100.228 219.251C99.9179 219.758 99.4814 220.157 98.9188 220.449C98.3563 220.738 97.697 220.883 96.9408 220.883C96.1877 220.883 95.5299 220.738 94.9674 220.449C94.4048 220.157 93.9683 219.758 93.6579 219.251C93.3474 218.74 93.1922 218.155 93.1922 217.494V211.283H94.6169V217.379C94.6169 217.806 94.7107 218.186 94.8982 218.518C95.0888 218.85 95.3577 219.111 95.7051 219.301C96.0524 219.489 96.4643 219.583 96.9408 219.583C97.4203 219.583 97.8338 219.489 98.1811 219.301C98.5315 219.111 98.799 218.85 98.9834 218.518C99.1709 218.186 99.2647 217.806 99.2647 217.379V211.283ZM107.916 213.764C107.867 213.327 107.664 212.989 107.307 212.749C106.951 212.507 106.502 212.385 105.961 212.385C105.573 212.385 105.238 212.447 104.956 212.57C104.673 212.689 104.453 212.855 104.296 213.068C104.143 213.277 104.066 213.515 104.066 213.782C104.066 214.007 104.118 214.2 104.222 214.363C104.33 214.526 104.47 214.663 104.642 214.774C104.817 214.881 105.005 214.972 105.205 215.046C105.404 215.116 105.596 215.175 105.781 215.221L106.703 215.461C107.004 215.534 107.313 215.634 107.63 215.76C107.946 215.886 108.24 216.052 108.511 216.258C108.781 216.464 108.999 216.719 109.165 217.024C109.334 217.328 109.419 217.692 109.419 218.116C109.419 218.651 109.281 219.126 109.004 219.541C108.73 219.956 108.332 220.283 107.81 220.523C107.29 220.763 106.662 220.883 105.924 220.883C105.217 220.883 104.605 220.771 104.089 220.546C103.572 220.322 103.168 220.004 102.876 219.592C102.584 219.177 102.423 218.685 102.392 218.116H103.821C103.849 218.458 103.96 218.742 104.153 218.969C104.35 219.194 104.601 219.361 104.905 219.472C105.212 219.58 105.549 219.633 105.915 219.633C106.317 219.633 106.675 219.57 106.989 219.444C107.306 219.315 107.555 219.137 107.736 218.909C107.917 218.679 108.008 218.41 108.008 218.103C108.008 217.823 107.928 217.594 107.768 217.416C107.611 217.237 107.398 217.09 107.127 216.973C106.86 216.856 106.557 216.753 106.219 216.664L105.103 216.36C104.347 216.154 103.748 215.851 103.305 215.451C102.865 215.052 102.646 214.523 102.646 213.865C102.646 213.321 102.793 212.846 103.088 212.44C103.383 212.035 103.783 211.72 104.287 211.495C104.791 211.268 105.36 211.154 105.993 211.154C106.632 211.154 107.196 211.266 107.685 211.491C108.177 211.715 108.564 212.024 108.847 212.417C109.13 212.808 109.277 213.257 109.29 213.764H107.916ZM114.178 220.726H111.121V211.283H114.275C115.2 211.283 115.995 211.472 116.659 211.85C117.323 212.225 117.832 212.765 118.185 213.469C118.542 214.17 118.72 215.01 118.72 215.991C118.72 216.974 118.54 217.82 118.181 218.527C117.824 219.234 117.308 219.778 116.631 220.159C115.955 220.537 115.137 220.726 114.178 220.726ZM112.546 219.481H114.1C114.819 219.481 115.417 219.346 115.894 219.075C116.37 218.802 116.727 218.407 116.963 217.89C117.2 217.371 117.318 216.738 117.318 215.991C117.318 215.25 117.2 214.621 116.963 214.105C116.73 213.589 116.381 213.197 115.917 212.929C115.453 212.662 114.876 212.528 114.188 212.528H112.546V219.481Z" fill="#5A6475"/>
<path d="M173.447 211.283V220.726H172.018V212.712H171.963L169.703 214.188V212.823L172.059 211.283H173.447ZM179.289 220.883C178.561 220.88 177.938 220.688 177.422 220.307C176.905 219.925 176.51 219.371 176.237 218.642C175.963 217.914 175.827 217.036 175.827 216.009C175.827 214.986 175.963 214.111 176.237 213.386C176.514 212.66 176.91 212.107 177.426 211.726C177.946 211.345 178.567 211.154 179.289 211.154C180.012 211.154 180.631 211.346 181.147 211.73C181.664 212.112 182.059 212.665 182.332 213.39C182.609 214.113 182.747 214.986 182.747 216.009C182.747 217.039 182.611 217.918 182.337 218.647C182.063 219.372 181.668 219.927 181.152 220.311C180.636 220.692 180.015 220.883 179.289 220.883ZM179.289 219.652C179.929 219.652 180.428 219.34 180.788 218.716C181.15 218.092 181.332 217.19 181.332 216.009C181.332 215.225 181.249 214.563 181.083 214.022C180.92 213.478 180.685 213.066 180.377 212.786C180.073 212.503 179.71 212.362 179.289 212.362C178.653 212.362 178.153 212.676 177.791 213.303C177.428 213.93 177.245 214.832 177.242 216.009C177.242 216.796 177.323 217.462 177.486 218.006C177.652 218.547 177.888 218.957 178.192 219.237C178.496 219.513 178.862 219.652 179.289 219.652ZM187.671 220.883C186.942 220.88 186.32 220.688 185.803 220.307C185.287 219.925 184.892 219.371 184.618 218.642C184.345 217.914 184.208 217.036 184.208 216.009C184.208 214.986 184.345 214.111 184.618 213.386C184.895 212.66 185.291 212.107 185.808 211.726C186.327 211.345 186.948 211.154 187.671 211.154C188.393 211.154 189.012 211.346 189.529 211.73C190.045 212.112 190.44 212.665 190.714 213.39C190.99 214.113 191.129 214.986 191.129 216.009C191.129 217.039 190.992 217.918 190.718 218.647C190.445 219.372 190.05 219.927 189.533 220.311C189.017 220.692 188.396 220.883 187.671 220.883ZM187.671 219.652C188.31 219.652 188.809 219.34 189.169 218.716C189.532 218.092 189.713 217.19 189.713 216.009C189.713 215.225 189.63 214.563 189.464 214.022C189.301 213.478 189.066 213.066 188.759 212.786C188.454 212.503 188.092 212.362 187.671 212.362C187.034 212.362 186.535 212.676 186.172 213.303C185.809 213.93 185.626 214.832 185.623 216.009C185.623 216.796 185.705 217.462 185.868 218.006C186.034 218.547 186.269 218.957 186.573 219.237C186.878 219.513 187.243 219.652 187.671 219.652ZM196.052 220.883C195.323 220.88 194.701 220.688 194.185 220.307C193.668 219.925 193.273 219.371 193 218.642C192.726 217.914 192.589 217.036 192.589 216.009C192.589 214.986 192.726 214.111 193 213.386C193.276 212.66 193.673 212.107 194.189 211.726C194.709 211.345 195.33 211.154 196.052 211.154C196.774 211.154 197.394 211.346 197.91 211.73C198.427 212.112 198.822 212.665 199.095 213.39C199.372 214.113 199.51 214.986 199.51 216.009C199.51 217.039 199.373 217.918 199.1 218.647C198.826 219.372 198.431 219.927 197.915 220.311C197.398 220.692 196.777 220.883 196.052 220.883ZM196.052 219.652C196.691 219.652 197.191 219.34 197.55 218.716C197.913 218.092 198.095 217.19 198.095 216.009C198.095 215.225 198.012 214.563 197.846 214.022C197.683 213.478 197.448 213.066 197.14 212.786C196.836 212.503 196.473 212.362 196.052 212.362C195.416 212.362 194.916 212.676 194.553 213.303C194.191 213.93 194.008 214.832 194.005 216.009C194.005 216.796 194.086 217.462 194.249 218.006C194.415 218.547 194.65 218.957 194.955 219.237C195.259 219.513 195.625 219.652 196.052 219.652ZM210.784 211.283H212.213V217.494C212.213 218.155 212.058 218.74 211.747 219.251C211.437 219.758 211 220.157 210.438 220.449C209.875 220.738 209.216 220.883 208.46 220.883C207.707 220.883 207.049 220.738 206.486 220.449C205.924 220.157 205.487 219.758 205.177 219.251C204.866 218.74 204.711 218.155 204.711 217.494V211.283H206.136V217.379C206.136 217.806 206.23 218.186 206.417 218.518C206.608 218.85 206.877 219.111 207.224 219.301C207.571 219.489 207.983 219.583 208.46 219.583C208.939 219.583 209.353 219.489 209.7 219.301C210.05 219.111 210.318 218.85 210.502 218.518C210.69 218.186 210.784 217.806 210.784 217.379V211.283ZM219.435 213.764C219.386 213.327 219.183 212.989 218.826 212.749C218.469 212.507 218.021 212.385 217.48 212.385C217.092 212.385 216.757 212.447 216.475 212.57C216.192 212.689 215.972 212.855 215.815 213.068C215.661 213.277 215.585 213.515 215.585 213.782C215.585 214.007 215.637 214.2 215.741 214.363C215.849 214.526 215.989 214.663 216.161 214.774C216.336 214.881 216.524 214.972 216.724 215.046C216.923 215.116 217.115 215.175 217.3 215.221L218.222 215.461C218.523 215.534 218.832 215.634 219.149 215.76C219.465 215.886 219.759 216.052 220.029 216.258C220.3 216.464 220.518 216.719 220.684 217.024C220.853 217.328 220.938 217.692 220.938 218.116C220.938 218.651 220.799 219.126 220.523 219.541C220.249 219.956 219.851 220.283 219.329 220.523C218.809 220.763 218.181 220.883 217.443 220.883C216.736 220.883 216.124 220.771 215.608 220.546C215.091 220.322 214.687 220.004 214.395 219.592C214.103 219.177 213.942 218.685 213.911 218.116H215.34C215.368 218.458 215.479 218.742 215.672 218.969C215.869 219.194 216.119 219.361 216.424 219.472C216.731 219.58 217.068 219.633 217.434 219.633C217.836 219.633 218.194 219.57 218.508 219.444C218.825 219.315 219.074 219.137 219.255 218.909C219.436 218.679 219.527 218.41 219.527 218.103C219.527 217.823 219.447 217.594 219.287 217.416C219.13 217.237 218.917 217.09 218.646 216.973C218.379 216.856 218.076 216.753 217.738 216.664L216.622 216.36C215.866 216.154 215.266 215.851 214.824 215.451C214.384 215.052 214.164 214.523 214.164 213.865C214.164 213.321 214.312 212.846 214.607 212.44C214.902 212.035 215.302 211.72 215.806 211.495C216.31 211.268 216.879 211.154 217.512 211.154C218.151 211.154 218.715 211.266 219.204 211.491C219.696 211.715 220.083 212.024 220.366 212.417C220.649 212.808 220.796 213.257 220.809 213.764H219.435ZM225.697 220.726H222.64V211.283H225.794C226.719 211.283 227.514 211.472 228.178 211.85C228.842 212.225 229.351 212.765 229.704 213.469C230.061 214.17 230.239 215.01 230.239 215.991C230.239 216.974 230.059 217.82 229.7 218.527C229.343 219.234 228.827 219.778 228.15 220.159C227.474 220.537 226.656 220.726 225.697 220.726ZM224.065 219.481H225.619C226.338 219.481 226.936 219.346 227.413 219.075C227.889 218.802 228.246 218.407 228.482 217.89C228.719 217.371 228.837 216.738 228.837 215.991C228.837 215.25 228.719 214.621 228.482 214.105C228.249 213.589 227.9 213.197 227.436 212.929C226.971 212.662 226.395 212.528 225.707 212.528H224.065V219.481Z" fill="#5A6475"/>
<path d="M313.373 220.855C312.795 220.855 312.275 220.745 311.814 220.523C311.356 220.299 310.99 219.991 310.717 219.601C310.443 219.211 310.297 218.765 310.279 218.264H311.662C311.696 218.67 311.876 219.003 312.201 219.264C312.527 219.526 312.918 219.656 313.373 219.656C313.735 219.656 314.056 219.573 314.336 219.407C314.619 219.238 314.84 219.006 315 218.711C315.163 218.416 315.245 218.08 315.245 217.701C315.245 217.317 315.162 216.974 314.996 216.673C314.83 216.372 314.601 216.135 314.309 215.963C314.02 215.791 313.688 215.703 313.313 215.7C313.027 215.7 312.739 215.75 312.45 215.848C312.161 215.946 311.928 216.075 311.749 216.235L310.445 216.042L310.975 211.283H316.167V212.505H312.16L311.86 215.147H311.915C312.1 214.969 312.344 214.82 312.649 214.7C312.956 214.58 313.285 214.52 313.635 214.52C314.21 214.52 314.722 214.657 315.171 214.93C315.623 215.204 315.978 215.577 316.236 216.051C316.497 216.521 316.626 217.062 316.623 217.674C316.626 218.285 316.488 218.831 316.208 219.311C315.932 219.79 315.547 220.168 315.055 220.445C314.567 220.718 314.006 220.855 313.373 220.855ZM321.595 220.883C320.866 220.88 320.244 220.688 319.727 220.307C319.211 219.925 318.816 219.371 318.542 218.642C318.269 217.914 318.132 217.036 318.132 216.009C318.132 214.986 318.269 214.111 318.542 213.386C318.819 212.66 319.216 212.107 319.732 211.726C320.251 211.345 320.872 211.154 321.595 211.154C322.317 211.154 322.937 211.346 323.453 211.73C323.969 212.112 324.364 212.665 324.638 213.39C324.915 214.113 325.053 214.986 325.053 216.009C325.053 217.039 324.916 217.918 324.643 218.647C324.369 219.372 323.974 219.927 323.458 220.311C322.941 220.692 322.32 220.883 321.595 220.883ZM321.595 219.652C322.234 219.652 322.734 219.34 323.093 218.716C323.456 218.092 323.637 217.19 323.637 216.009C323.637 215.225 323.554 214.563 323.388 214.022C323.225 213.478 322.99 213.066 322.683 212.786C322.379 212.503 322.016 212.362 321.595 212.362C320.958 212.362 320.459 212.676 320.096 213.303C319.734 213.93 319.551 214.832 319.548 216.009C319.548 216.796 319.629 217.462 319.792 218.006C319.958 218.547 320.193 218.957 320.497 219.237C320.802 219.513 321.168 219.652 321.595 219.652ZM329.976 220.883C329.248 220.88 328.625 220.688 328.109 220.307C327.592 219.925 327.197 219.371 326.924 218.642C326.65 217.914 326.513 217.036 326.513 216.009C326.513 214.986 326.65 214.111 326.924 213.386C327.2 212.66 327.597 212.107 328.113 211.726C328.633 211.345 329.254 211.154 329.976 211.154C330.699 211.154 331.318 211.346 331.834 211.73C332.351 212.112 332.746 212.665 333.019 213.39C333.296 214.113 333.434 214.986 333.434 216.009C333.434 217.039 333.297 217.918 333.024 218.647C332.75 219.372 332.355 219.927 331.839 220.311C331.323 220.692 330.702 220.883 329.976 220.883ZM329.976 219.652C330.616 219.652 331.115 219.34 331.475 218.716C331.837 218.092 332.019 217.19 332.019 216.009C332.019 215.225 331.936 214.563 331.77 214.022C331.607 213.478 331.372 213.066 331.064 212.786C330.76 212.503 330.397 212.362 329.976 212.362C329.34 212.362 328.84 212.676 328.478 213.303C328.115 213.93 327.932 214.832 327.929 216.009C327.929 216.796 328.01 217.462 328.173 218.006C328.339 218.547 328.574 218.957 328.879 219.237C329.183 219.513 329.549 219.652 329.976 219.652ZM338.358 220.883C337.629 220.88 337.007 220.688 336.49 220.307C335.974 219.925 335.579 219.371 335.305 218.642C335.032 217.914 334.895 217.036 334.895 216.009C334.895 214.986 335.032 214.111 335.305 213.386C335.582 212.66 335.978 212.107 336.495 211.726C337.014 211.345 337.635 211.154 338.358 211.154C339.08 211.154 339.699 211.346 340.216 211.73C340.732 212.112 341.127 212.665 341.401 213.39C341.677 214.113 341.816 214.986 341.816 216.009C341.816 217.039 341.679 217.918 341.405 218.647C341.132 219.372 340.737 219.927 340.22 220.311C339.704 220.692 339.083 220.883 338.358 220.883ZM338.358 219.652C338.997 219.652 339.496 219.34 339.856 218.716C340.219 218.092 340.4 217.19 340.4 216.009C340.4 215.225 340.317 214.563 340.151 214.022C339.988 213.478 339.753 213.066 339.446 212.786C339.141 212.503 338.779 212.362 338.358 212.362C337.721 212.362 337.222 212.676 336.859 213.303C336.496 213.93 336.313 214.832 336.31 216.009C336.31 216.796 336.392 217.462 336.555 218.006C336.721 218.547 336.956 218.957 337.26 219.237C337.564 219.513 337.93 219.652 338.358 219.652ZM353.089 211.283H354.518V217.494C354.518 218.155 354.363 218.74 354.053 219.251C353.742 219.758 353.306 220.157 352.743 220.449C352.181 220.738 351.521 220.883 350.765 220.883C350.012 220.883 349.354 220.738 348.792 220.449C348.229 220.157 347.793 219.758 347.482 219.251C347.172 218.74 347.017 218.155 347.017 217.494V211.283H348.441V217.379C348.441 217.806 348.535 218.186 348.723 218.518C348.913 218.85 349.182 219.111 349.53 219.301C349.877 219.489 350.289 219.583 350.765 219.583C351.245 219.583 351.658 219.489 352.006 219.301C352.356 219.111 352.623 218.85 352.808 218.518C352.995 218.186 353.089 217.806 353.089 217.379V211.283ZM361.74 213.764C361.691 213.327 361.488 212.989 361.132 212.749C360.775 212.507 360.326 212.385 359.785 212.385C359.398 212.385 359.063 212.447 358.78 212.57C358.497 212.689 358.277 212.855 358.121 213.068C357.967 213.277 357.89 213.515 357.89 213.782C357.89 214.007 357.942 214.2 358.047 214.363C358.155 214.526 358.294 214.663 358.467 214.774C358.642 214.881 358.829 214.972 359.029 215.046C359.229 215.116 359.421 215.175 359.605 215.221L360.528 215.461C360.829 215.534 361.138 215.634 361.454 215.76C361.771 215.886 362.065 216.052 362.335 216.258C362.606 216.464 362.824 216.719 362.99 217.024C363.159 217.328 363.243 217.692 363.243 218.116C363.243 218.651 363.105 219.126 362.828 219.541C362.555 219.956 362.157 220.283 361.634 220.523C361.115 220.763 360.486 220.883 359.748 220.883C359.041 220.883 358.43 220.771 357.913 220.546C357.397 220.322 356.993 220.004 356.701 219.592C356.409 219.177 356.247 218.685 356.216 218.116H357.646C357.673 218.458 357.784 218.742 357.978 218.969C358.175 219.194 358.425 219.361 358.729 219.472C359.037 219.58 359.373 219.633 359.739 219.633C360.142 219.633 360.5 219.57 360.813 219.444C361.13 219.315 361.379 219.137 361.56 218.909C361.742 218.679 361.832 218.41 361.832 218.103C361.832 217.823 361.753 217.594 361.593 217.416C361.436 217.237 361.222 217.09 360.952 216.973C360.684 216.856 360.382 216.753 360.043 216.664L358.928 216.36C358.171 216.154 357.572 215.851 357.129 215.451C356.69 215.052 356.47 214.523 356.47 213.865C356.47 213.321 356.618 212.846 356.913 212.44C357.208 212.035 357.607 211.72 358.111 211.495C358.616 211.268 359.184 211.154 359.818 211.154C360.457 211.154 361.021 211.266 361.51 211.491C362.002 211.715 362.389 212.024 362.672 212.417C362.954 212.808 363.102 213.257 363.114 213.764H361.74ZM368.003 220.726H364.946V211.283H368.1C369.025 211.283 369.82 211.472 370.484 211.85C371.147 212.225 371.656 212.765 372.01 213.469C372.366 214.17 372.545 215.01 372.545 215.991C372.545 216.974 372.365 217.82 372.005 218.527C371.649 219.234 371.132 219.778 370.456 220.159C369.78 220.537 368.962 220.726 368.003 220.726ZM366.371 219.481H367.925C368.644 219.481 369.242 219.346 369.718 219.075C370.195 218.802 370.551 218.407 370.788 217.89C371.025 217.371 371.143 216.738 371.143 215.991C371.143 215.25 371.025 214.621 370.788 214.105C370.554 213.589 370.205 213.197 369.741 212.929C369.277 212.662 368.701 212.528 368.012 212.528H366.371V219.481Z" fill="#5A6475"/>
<path d="M56.9683 242.985C56.9683 239.624 59.6932 236.899 63.0546 236.899H159.218V249.071H63.0546C59.6932 249.071 56.9683 246.346 56.9683 242.985Z" fill="#582066"/>
<path d="M162.464 236.899H303.667V249.071H162.464V236.899Z" fill="#EFE4F2"/>
<path d="M162.464 236.899H239.558V249.071H162.464V236.899Z" fill="#582066"/>
<path d="M409.163 242.985C409.163 246.346 406.438 249.071 403.076 249.071L306.913 249.071L306.913 236.899L403.076 236.899C406.438 236.899 409.163 239.624 409.163 242.985Z" fill="#EFE4F2"/>
<path d="M33 0C33 0 34.4346 13.3898 40.0224 18.9776C45.6102 24.5654 59 26 59 26C59 26 45.6102 27.4346 40.0224 33.0224C34.4346 38.6102 33 52 33 52C33 52 31.5654 38.6102 25.9776 33.0224C20.3898 27.4346 7 26 7 26C7 26 20.3898 24.5654 25.9776 18.9776C31.5654 13.3898 33 0 33 0Z" fill="url(#paint1_linear_3074_1159)"/>
<path d="M12 28C12 28 12.6621 34.1799 15.2411 36.7589C17.8201 39.3379 24 40 24 40C24 40 17.8201 40.6621 15.2411 43.2411C12.6621 45.8201 12 52 12 52C12 52 11.3379 45.8201 8.75891 43.2411C6.17992 40.6621 0 40 0 40C0 40 6.17992 39.3379 8.75891 36.7589C11.3379 34.1799 12 28 12 28Z" fill="url(#paint2_linear_3074_1159)"/>
<path d="M22 43C22 43 22.3311 46.09 23.6205 47.3795C24.91 48.6689 28 49 28 49C28 49 24.91 49.3311 23.6205 50.6205C22.3311 51.91 22 55 22 55C22 55 21.6689 51.91 20.3795 50.6205C19.09 49.3311 16 49 16 49C16 49 19.09 48.6689 20.3795 47.3795C21.6689 46.09 22 43 22 43Z" fill="url(#paint3_linear_3074_1159)"/>
<defs>
<linearGradient id="paint0_linear_3074_1159" x1="37.5" y1="4.00001" x2="353.5" y2="271" gradientUnits="userSpaceOnUse">
<stop stop-color="#C598FF"/>
<stop offset="1" stop-color="#D0D0D0" stop-opacity="0"/>
</linearGradient>
<linearGradient id="paint1_linear_3074_1159" x1="33" y1="0" x2="33" y2="52" gradientUnits="userSpaceOnUse">
<stop stop-color="#814BF4"/>
<stop offset="1" stop-color="#8E5CF7" stop-opacity="0"/>
</linearGradient>
<linearGradient id="paint2_linear_3074_1159" x1="12" y1="28" x2="12" y2="52" gradientUnits="userSpaceOnUse">
<stop stop-color="#814BF4"/>
<stop offset="1" stop-color="#8E5CF7" stop-opacity="0"/>
</linearGradient>
<linearGradient id="paint3_linear_3074_1159" x1="22" y1="43" x2="22" y2="55" gradientUnits="userSpaceOnUse">
<stop stop-color="#814BF4"/>
<stop offset="1" stop-color="#8E5CF7" stop-opacity="0"/>
</linearGradient>
<clipPath id="clip0_3074_1159">
<rect width="19.4762" height="19.4762" fill="white" transform="translate(56.9683 60.8373)"/>
</clipPath>
<clipPath id="clip1_3074_1159">
<rect width="19.4762" height="19.4762" fill="white" transform="translate(394.232 29.9683)"/>
</clipPath>
</defs>
</svg>
